<svg width="115" height="127" viewBox="0 0 115 127" fill="none" xmlns="http://www.w3.org/2000/svg">
<mask id="mask0_1794_2334" style="mask-type:alpha" maskUnits="userSpaceOnUse" x="0" y="0" width="115" height="127">
<path d="M0.116747 126.106C0.103945 112.28 0.033411 36.1056 7.66721e-05 0.105596C20.0001 0.0870769 30.0317 0.077788 51.0001 0.0583724C85.794 0.0261548 114.026 28.2061 114.058 63C114.091 97.794 85.9106 126.026 51.1167 126.058C16.3228 126.091 21.1167 126.086 0.116747 126.106Z" fill="#D9D9D9"/>
</mask>
<g mask="url(#mask0_1794_2334)">
<rect x="126.141" y="151.989" width="126" height="171" transform="rotate(179.947 126.141 151.989)" fill="#1A203B" fill-opacity="0.8"/>
</g>
<path d="M42.5878 59.0662L75.0544 59.0361L75.0594 64.3695L42.5927 64.3995L57.5399 79.319L53.7433 83.0559L32.3903 61.7423L53.7038 40.3892L57.5073 44.1191L42.5878 59.0662Z" fill="white"/>
</svg>
