<?xml version="1.0" encoding="UTF-8"?>
<svg
    width="12px"
    height="9px"
    viewBox="0 0 12 9"
    version="1.1"
    xmlns="http://www.w3.org/2000/svg"
    xmlns:xlink="http://www.w3.org/1999/xlink"
>
    <title>icon</title>
    <g id="Symbols" stroke="none" stroke-width="1" fill="none" fill-rule="evenodd">
        <g id="PreviewSection/element/checkbox/select" transform="translate(-3.000000, -4.000000)" fill="#FFFFFF">
            <g id="checkbox">
                <path
                    d="M13.832,4.085 C13.7616468,4.01446872 13.6661204,3.97482966 13.5665,3.97482966 C13.4668796,3.97482966 13.3713532,4.01446872 13.301,4.085 L7.701,9.664 C7.63118313,9.73553185 7.535456,9.77586538 7.4355,9.77586538 C7.335544,9.77586538 7.23981687,9.73553185 7.17,9.664 L4.718,7.164 C4.64791164,7.09297263 4.5522861,7.05298998 4.4525,7.05298998 C4.3527139,7.05298998 4.25708836,7.09297263 4.187,7.164 L3.104,8.139 C3.03307122,8.20862248 2.99277181,8.30361396 2.992,8.403 C2.99224435,8.5051354 3.03244352,8.60312086 3.104,8.676 L5.576,11.276 L6.107,11.813 L7.17,12.886 C7.2403532,12.9565313 7.33587955,12.9961703 7.4355,12.9961703 C7.53512045,12.9961703 7.6306468,12.9565313 7.701,12.886 L14.89,5.697 C15.0359672,5.54775758 15.0359672,5.30924242 14.89,5.16 L13.832,4.085 Z"
                    id="icon"
                ></path>
            </g>
        </g>
    </g>
</svg>
