<?xml version="1.0" encoding="UTF-8"?>
<svg width="192px" height="370px" viewBox="0 0 192 370" version="1.1" xmlns="http://www.w3.org/2000/svg" xmlns:xlink="http://www.w3.org/1999/xlink">
    <title>Group 5</title>
    <defs>
        <polygon id="path-1" points="0 0.512307692 191.416079 0.512307692 191.416079 369.999921 0 369.999921"></polygon>
    </defs>
    <g id="Page-1" stroke="none" stroke-width="1" fill="none" fill-rule="evenodd">
        <g id="Group-5">
            <mask id="mask-2" fill="white">
                <use xlink:href="#path-1"></use>
            </mask>
            <g id="Clip-4"></g>
            <path d="M20.0169502,363.568404 L171.652137,363.551011 C172.359676,363.493297 173.053001,363.388147 173.719477,363.237934 C174.265134,363.1146 174.81553,362.953318 175.35487,362.760412 C175.621777,362.667122 175.884735,362.564344 176.135848,362.455241 L176.232977,362.416502 C176.45961,362.318468 176.682295,362.216481 176.900242,362.105006 L177.010006,362.052827 C177.461693,361.825135 177.903115,361.568981 178.357962,361.271716 C178.83176,360.961011 179.284237,360.628959 179.702759,360.283468 L179.837792,360.175156 C180.126809,359.928489 180.413457,359.66522 180.690629,359.392464 C181.057822,359.024045 181.398167,358.650882 181.69824,358.285626 C181.802475,358.15834 181.90829,358.028682 182.012526,357.895071 C183.980368,355.323254 185.021145,352.270754 185.021145,349.071203 L185.021145,21.4417372 C185.021145,20.7254551 184.969027,20.0147073 184.865581,19.3308397 C184.840312,19.1260748 184.807936,18.942656 184.768452,18.7529124 C184.688696,18.3022714 184.575774,17.8318654 184.420211,17.2997927 C184.357038,17.0815876 184.287547,16.8681261 184.214108,16.6562457 C184.079866,16.2696432 183.918774,15.8696004 183.704775,15.3944509 C183.486828,14.9248355 183.290991,14.5437671 183.090417,14.1982756 C182.657681,13.4393013 182.138082,12.7032543 181.543465,12.009109 C181.399747,11.8415021 181.249711,11.6731047 181.098095,11.5102415 C180.951218,11.3402628 180.80434,11.1868868 180.646407,11.0461603 C180.332911,10.7378269 180.00599,10.4468868 179.633269,10.1417158 C179.461912,9.99940812 179.294503,9.86500641 179.116039,9.74167308 L178.682514,9.43413034 C178.62171,9.39539103 178.548271,9.34479274 178.474832,9.29419444 C178.087897,9.03725 177.744393,8.83248504 177.407996,8.65697222 C176.988685,8.42532692 176.590694,8.23400214 176.185597,8.0663953 C175.970019,7.9715235 175.761547,7.88692949 175.553866,7.81340385 C175.351712,7.73592521 175.156665,7.66951496 174.960828,7.61259188 C174.692343,7.52799786 174.436491,7.45210043 174.18064,7.38252778 C174.011652,7.33746368 173.845823,7.29239957 173.674466,7.25998504 C173.634983,7.25445085 173.574968,7.23863889 173.514164,7.22124573 C173.330173,7.18250641 173.122491,7.1429765 172.909282,7.11451496 L172.74819,7.08447222 C172.647113,7.06786966 172.546826,7.05363889 172.446539,7.04573291 C172.281499,7.01885256 172.165418,7.00857479 172.048548,6.99829701 C171.968792,6.98564744 171.930888,6.98169444 171.893774,6.98169444 C171.705834,6.96192949 171.57475,6.95086111 171.439717,6.94532692 C171.372596,6.93900214 171.33943,6.93425855 171.310213,6.93425855 L171.19808,6.93267735 C170.913801,6.91287494 170.701382,6.91287494 170.506335,6.91287494 L148.920086,6.91287494 C147.939323,6.96904487 147.135446,7.73276282 147.033579,8.73207906 C147.035158,8.79295513 147.03121,8.8981047 147.025682,9.00246368 C147.004362,9.50844658 146.953823,9.98122436 146.873277,10.4350278 C146.851167,10.5828697 146.826687,10.7338739 146.791942,10.8856688 L146.788783,10.9014808 C146.751669,11.0975491 146.706658,11.2872927 146.65612,11.4770363 C146.623744,11.6288312 146.573205,11.800391 146.521877,11.9727415 L146.480025,12.1047714 C146.46739,12.1458825 146.456335,12.178297 146.44528,12.2075491 C146.431855,12.2621004 146.413693,12.3079551 146.3979,12.347485 L146.28103,12.6811175 C146.240757,12.8123568 146.176794,12.9681047 146.111252,13.1238526 L146.018861,13.3491731 C145.993592,13.4068868 145.967533,13.4630192 145.939105,13.5207329 L145.898043,13.6116517 C145.898832,13.6100705 145.899622,13.6100705 145.899622,13.6100705 C145.901201,13.6100705 145.891725,13.6337885 145.875932,13.6646218 C145.828552,13.770562 145.765379,13.8915235 145.701416,14.0132756 C145.657195,14.1065662 145.59876,14.2180406 145.540325,14.3223996 C145.539535,14.3350491 145.515056,14.3769509 145.488207,14.4188526 C145.461359,14.4718226 145.432141,14.5216303 145.402134,14.5706474 C145.369758,14.6354765 145.320798,14.7137457 145.27105,14.7928056 C145.248149,14.8370791 145.231566,14.8631688 145.214194,14.8908397 L144.765665,14.7137457 L145.169183,14.9627842 C145.145493,15.0015235 145.123382,15.0371004 145.097324,15.0734679 C145.083899,15.1043013 145.042837,15.1675491 144.995457,15.2323782 C144.994667,15.2402842 144.956763,15.2956261 144.91728,15.3509679 L144.869111,15.4173782 C144.826469,15.4822073 144.797251,15.5264808 144.763296,15.5715449 C144.745133,15.6000064 144.719864,15.6355833 144.689857,15.6711603 C144.656691,15.7249209 144.618787,15.7763098 144.575356,15.8284893 L144.56509,15.8435107 L144.5643,15.8427201 C144.545349,15.8711816 144.524817,15.8964808 144.502707,15.9194081 C144.479017,15.9541944 144.452958,15.9881902 144.426899,16.0221859 L144.317925,16.155797 C144.313187,16.1723996 144.253963,16.2475064 144.194738,16.3147073 L144.092082,16.4285534 C144.062074,16.4641303 144.035226,16.4957543 144.007588,16.525797 C143.994163,16.5479338 143.972842,16.5763953 143.944414,16.6080192 L143.9302,16.626203 C143.919935,16.6372714 143.909669,16.6491303 143.898614,16.6609893 L143.669611,16.9084466 C143.638025,16.9432329 143.588276,16.9946218 143.537738,17.0444295 C143.504572,17.0839594 143.448506,17.1408825 143.383753,17.197015 C143.331635,17.257891 143.241614,17.346438 143.138168,17.4365662 C143.104212,17.4784679 143.029984,17.5464594 142.939962,17.6215662 L142.825461,17.7251346 C142.729912,17.8081474 142.625676,17.8959038 142.526968,17.9757543 C142.476429,18.0192372 142.413256,18.0698355 142.349294,18.1204338 L142.247427,18.202656 C142.173988,18.2603697 142.113974,18.307015 142.046852,18.3544509 C142.046063,18.3544509 142.046063,18.3552415 142.045273,18.3552415 L142.045273,18.5892585 L141.719142,18.5940021 C141.694662,18.6106047 141.670972,18.6264167 141.646493,18.641438 C141.597534,18.6817585 141.550943,18.7110107 141.510671,18.733938 L141.41907,18.7948141 C141.336945,18.8477842 141.25403,18.9015449 141.172695,18.9489808 C141.107152,19.0003697 140.998179,19.0651987 140.889995,19.123703 C140.798394,19.1837885 140.679944,19.2517799 140.553598,19.3110748 C140.520432,19.3324209 140.487266,19.3513953 140.454101,19.3703697 L140.335651,19.4312457 C140.260633,19.4715662 140.184825,19.509515 140.104279,19.5466731 C140.054531,19.578297 139.960561,19.6225705 139.858694,19.666844 C139.823159,19.6881902 139.738665,19.7245577 139.654961,19.759344 C139.641536,19.76725 139.608371,19.7806902 139.572046,19.7949209 C139.518349,19.8249637 139.452807,19.8494722 139.403058,19.8652842 L139.395951,19.867656 C139.215118,19.9427628 139.040602,20.0123355 138.859769,20.0763739 L138.737371,20.1190662 C138.601549,20.1665021 138.467306,20.2123568 138.329905,20.2558397 C138.131699,20.3175064 137.939021,20.3736389 137.740026,20.4234466 C137.303342,20.5325491 136.906931,20.6131902 136.527892,20.6709038 C136.360483,20.6954124 136.186757,20.7207115 136.013031,20.7388953 L135.900899,20.7523355 C135.747704,20.764985 135.600037,20.776844 135.458687,20.7831688 C135.299175,20.7942372 135.133346,20.800562 134.966727,20.8068868 C134.949354,20.8068868 134.928823,20.8068868 134.91303,20.8068868 C134.891709,20.8068868 134.873547,20.8068868 134.857753,20.8092585 L56.6210249,20.8132115 C56.5317929,20.8060962 56.500996,20.8076774 56.4662508,20.8068868 C56.2830488,20.800562 56.1172194,20.7942372 55.9442831,20.7823782 C55.8147782,20.776844 55.6647421,20.7641944 55.5162853,20.7515449 L55.3788838,20.7357329 C55.2296373,20.7207115 55.056701,20.6954124 54.8900819,20.6709038 C54.5126226,20.6139808 54.1051561,20.5301774 53.677948,20.4234466 C53.4781631,20.3736389 53.2846955,20.3175064 53.0857002,20.2550491 C52.9490884,20.2123568 52.8148455,20.1665021 52.6790233,20.1190662 L52.5605738,20.0779551 C52.3757925,20.0123355 52.2004871,19.9427628 52.0212334,19.867656 L52.0101781,19.8644936 C51.95885,19.8471004 51.8925182,19.8225919 51.8206588,19.779109 C51.8088139,19.7743654 51.7724893,19.7656688 51.7369545,19.747485 C51.6832573,19.7269295 51.597184,19.6897714 51.5174279,19.6462885 C51.4558342,19.6225705 51.3602848,19.5775064 51.2726322,19.5261175 C51.2363076,19.5103056 51.1881381,19.4873782 51.1352307,19.4597073 L51.127334,19.4597073 L50.9954602,19.3877628 C50.9401837,19.3569295 50.8983315,19.3340021 50.8635863,19.3110748 C50.7372401,19.2525705 50.6172112,19.1829979 50.4971823,19.1063098 C50.4174263,19.0651987 50.3084527,18.9995791 50.2010584,18.9197286 C50.1615752,18.9007543 50.0778709,18.8469936 49.9949562,18.7932329 L49.8891412,18.7244509 C49.8693996,18.7125919 49.8228095,18.6849209 49.769902,18.641438 C49.7454224,18.6264167 49.7225222,18.6113953 49.7004116,18.5955833 L49.3774391,18.5955833 L49.3742804,18.3584038 C49.3632251,18.3504979 49.3529595,18.3418013 49.3426939,18.3331047 C49.302421,18.3062244 49.2408273,18.2587885 49.1729162,18.2042372 L49.0765772,18.1275491 C49.0094558,18.0745791 48.943124,18.021609 48.8799509,17.9670577 C48.7915086,17.8966944 48.6864833,17.808938 48.586196,17.7219722 L48.5190746,17.6603056 C48.3864111,17.5464594 48.3121827,17.4784679 48.2371646,17.3962457 C48.1755708,17.3472286 48.0871285,17.2586816 47.9978965,17.1630192 C47.9655203,17.1377201 47.9086645,17.0815876 47.853388,17.0159679 C47.8241704,16.9890876 47.7681043,16.9337457 47.7199348,16.8784038 C47.6962449,16.8546859 47.6622894,16.8198996 47.6275442,16.7795791 L47.6180682,16.7708825 C47.5627917,16.7163312 47.5177809,16.6625705 47.4719804,16.5985321 C47.4230212,16.5463526 47.3574792,16.4696645 47.2895681,16.3882329 L47.219288,16.3115449 C47.1616425,16.2451346 47.1032074,16.171609 47.0510896,16.0980833 L46.9831785,16.0126987 L46.9555403,15.9771218 L46.9215847,15.9605192 L46.8449874,15.8316517 C46.8007662,15.7794722 46.7620727,15.7280833 46.7289068,15.6743226 C46.6917926,15.6308397 46.664944,15.5897286 46.6436231,15.5573141 C46.6246712,15.5343868 46.5970329,15.492485 46.568605,15.4482115 C46.5614981,15.4387244 46.5330702,15.4015662 46.5062216,15.3596645 C46.4556831,15.2885107 46.4201482,15.2379124 46.390141,15.1857329 C46.3719788,15.1659679 46.3301266,15.1011389 46.2898537,15.0260321 L46.2898537,15.0276132 C46.2874847,15.0276132 46.2630052,14.9896645 46.2385256,14.9485534 L46.1690352,14.8347073 C46.0948068,14.7129551 46.0458476,14.6331047 46.0024161,14.5461389 C45.9842538,14.5208397 45.943981,14.4544295 45.9108151,14.3801132 C45.8168451,14.21725 45.7576203,14.104985 45.7055025,13.9935107 C45.6518054,13.8923141 45.5878426,13.7697714 45.5301972,13.6409038 C45.5120349,13.6132329 45.4962416,13.5721218 45.483607,13.5333825 C45.4543894,13.473297 45.4267512,13.4132115 45.399113,13.3531261 L45.3548918,13.2558825 L45.7828896,13.0495363 L45.3185673,13.1594295 C45.2332836,12.9499209 45.1716898,12.8020791 45.1235203,12.6479124 L45.0050708,12.3134893 C44.9995431,12.2976774 44.9845395,12.2605192 44.9711152,12.2091303 C44.9545323,12.1648568 44.941108,12.1237457 44.9284734,12.0771004 L45.3485745,11.8375491 L44.8945178,11.9727415 C44.8431897,11.8011816 44.7942305,11.6304124 44.755537,11.4588526 C44.7097365,11.2865021 44.666305,11.0983397 44.6276115,10.9038526 L44.6212942,10.8706474 C44.5881283,10.7243868 44.5644384,10.5773355 44.5415381,10.42475 C44.4617821,9.97252778 44.4120333,9.49975 44.3930813,9.03013462 C44.386764,8.92261325 44.3804467,8.8056047 44.3804467,8.68306197 C44.2801594,7.73276282 43.4770713,6.96904487 42.4710397,6.91287494 L20.9108496,6.91287494 C20.7158026,6.9081688 20.5089107,6.91287494 20.2728013,6.92714316 L19.9158732,6.94611752 C12.3485252,7.44656624 6.3960397,13.8140449 6.3960397,21.4417372 L6.3960397,349.071203 C6.3960397,356.601652 12.2648209,362.961224 19.7563611,363.55022 L19.9608841,363.568404 L20.0169502,363.568404 Z M170.506335,364.545583 L20.5239143,364.539259 L19.6781844,364.495776 C11.701001,363.868041 5.44923283,357.093404 5.44923283,349.071203 L5.44923283,21.4417372 C5.44923283,13.3159679 11.7894433,6.53263462 19.8850763,5.99819017 L20.2080488,5.98079701 C20.4789035,5.96735684 20.700799,5.96735684 20.9108496,5.96735684 L42.4963089,5.96735684 C43.9958805,6.04641667 45.1756381,7.16827564 45.3256743,8.63483547 C45.3280432,8.78742094 45.3335709,8.88624573 45.3390985,8.98427991 C45.3572608,9.42069017 45.4022716,9.85077564 45.4757104,10.2705833 C45.4994003,10.4223782 45.5207212,10.5591517 45.5538871,10.6959252 L45.565732,10.7654979 C45.5981083,10.9236175 45.6344328,11.0785748 45.6754953,11.2335321 C45.7133992,11.4003483 45.75841,11.5513526 45.8026312,11.7023568 L46.0268957,12.3625064 C46.0671685,12.4897927 46.1192863,12.6115449 46.1690352,12.7340876 L46.1982527,12.8084038 C46.2124667,12.8431902 46.225891,12.8795577 46.2377359,12.918297 L46.2630052,12.9633611 C46.2890641,13.0210748 46.3159126,13.0795791 46.3459199,13.1372927 L46.3806651,13.2210962 C46.3940893,13.2487671 46.399617,13.2637885 46.4051446,13.2788098 C46.4438382,13.3618226 46.498325,13.4661816 46.5536014,13.5705406 C46.6072986,13.6835962 46.6554681,13.7737244 46.7028479,13.8598996 L46.7762866,13.9927201 C46.7905006,14.0259252 46.8094525,14.0535962 46.8276148,14.0828483 C46.8789429,14.1808825 46.9121088,14.2322714 46.9452747,14.2836603 L47.0905728,14.5224209 C47.1419009,14.6078056 47.1600632,14.6370577 47.1813841,14.6671004 C47.2271846,14.7382543 47.2453469,14.7627628 47.2635092,14.788062 L47.5248879,15.158062 C47.5367328,15.1794081 47.5525261,15.2007543 47.573847,15.2260534 L47.5951679,15.2363312 L47.6646584,15.339109 C47.6954552,15.3849637 47.7309901,15.4300278 47.7657353,15.4750919 L47.8273291,15.5533611 C47.8344361,15.5644295 47.8423327,15.5754979 47.851019,15.5857756 L47.944989,15.6940876 C48.031852,15.7984466 48.1013424,15.8806688 48.1692535,15.9597286 L48.1866261,15.9597286 L48.3342932,16.1471004 C48.3571935,16.1771432 48.3848317,16.2032329 48.4108906,16.2293226 C48.4669568,16.2917799 48.5072296,16.3313098 48.5475025,16.3716303 C48.5996203,16.4301346 48.6272585,16.457015 48.6572657,16.4838953 C48.7559737,16.5866731 48.8215158,16.6530833 48.8981132,16.7194936 C48.9833969,16.8080406 49.027618,16.8475705 49.0813152,16.8910534 L49.1618609,16.9637885 C49.300052,17.0855406 49.396391,17.165391 49.4872024,17.2389167 C49.5527445,17.2958397 49.6088106,17.3393226 49.664087,17.3835962 L49.7683227,17.4658184 C49.8172818,17.5061389 49.863872,17.5425064 49.9144105,17.5772927 C49.948366,17.6049637 49.9767939,17.6271004 50.0044321,17.6468654 L50.0739225,17.6974637 C50.0857675,17.7061603 50.0976125,17.7132756 50.1086678,17.7219722 L50.5106066,17.9971004 C50.5808867,18.0421645 50.6495874,18.0872286 50.7198675,18.1275491 C50.8327894,18.2081902 50.9030695,18.2493013 50.9733496,18.2864594 C51.0965371,18.363938 51.1897175,18.4184893 51.2884254,18.4635534 L51.4897897,18.5734466 C51.5616491,18.6145577 51.6350878,18.6501346 51.7124749,18.6865021 C51.8064449,18.7394722 51.8664593,18.7663526 51.9304221,18.7932329 C52.0228127,18.8414594 52.0780892,18.8635962 52.1341553,18.8873141 L52.3505232,18.9774423 C52.5266182,19.0517585 52.6979753,19.11975 52.8732806,19.1822073 L52.9901509,19.2233184 C53.1157074,19.2668013 53.2396846,19.3094936 53.3668205,19.3490235 C53.5500225,19.4059466 53.7261175,19.4573355 53.9085298,19.5031902 C54.3065204,19.6028056 54.6839797,19.6802842 55.0314317,19.7324637 C55.1846265,19.755391 55.3449283,19.7783184 55.5044403,19.7957115 L55.6307865,19.8107329 C55.7310738,19.8178483 55.866896,19.8297073 55.9979802,19.8344509 C56.1724959,19.8471004 56.32727,19.8526346 56.4836234,19.8589594 C56.5523242,19.8613312 56.6162869,19.8605406 56.6826187,19.8684466 L134.79537,19.8644936 C134.800108,19.85975 134.875126,19.8581688 134.950144,19.8581688 C135.089125,19.8526346 135.243899,19.8471004 135.40499,19.8352415 C135.547919,19.8297073 135.682162,19.8178483 135.817195,19.8067799 L135.962493,20.2676987 L135.911954,19.7957115 C136.071467,19.7783184 136.232558,19.755391 136.386542,19.7324637 C136.736363,19.6794936 137.102767,19.6043868 137.509444,19.5031902 C137.691067,19.4573355 137.866372,19.4059466 138.048785,19.3498141 C138.17671,19.3094936 138.300687,19.2668013 138.426244,19.2233184 L138.547062,19.1806261 C138.719999,19.11975 138.890566,19.0509679 139.067451,18.9774423 L139.223804,18.9126132 C139.342254,18.862015 139.395951,18.8406688 139.44491,18.8137885 C139.551515,18.765562 139.611529,18.7386816 139.666016,18.7062671 C139.782097,18.6509252 139.854746,18.6145577 139.926605,18.5734466 L140.12718,18.4635534 C140.225888,18.4184893 140.319068,18.3647286 140.412248,18.3054338 C140.514115,18.2493013 140.584395,18.2073996 140.654675,18.1560107 C140.766018,18.0880192 140.833929,18.0437457 140.90184,17.9994722 L141.309306,17.720391 C141.330627,17.7061603 141.351159,17.6919295 141.37169,17.6769081 L141.390642,17.6634679 C141.41907,17.6429124 141.446708,17.6215662 141.475136,17.5986389 C141.554102,17.5417158 141.600692,17.5053483 141.65281,17.4634466 L141.761784,17.3764808 C141.814691,17.3337885 141.867599,17.2934679 141.917347,17.2491944 C142.019214,17.1661816 142.116343,17.0855406 142.207154,17.0056902 L142.208733,17.0048996 L142.328762,16.8973782 C142.388777,16.8475705 142.432998,16.8080406 142.477219,16.7590235 C142.5933,16.6538739 142.658842,16.5874637 142.725174,16.5171004 C142.792295,16.4546432 142.819933,16.4269722 142.846782,16.3961389 C142.910745,16.3305192 142.951807,16.2894081 142.988132,16.2490876 C142.990501,16.2451346 142.994449,16.2427628 142.997608,16.2388098 L142.997608,16.2253697 L143.25109,15.9597286 C143.255828,15.9518226 143.262145,15.9439167 143.267673,15.9360107 C143.352167,15.8363953 143.400336,15.7794722 143.448506,15.7225491 L143.588276,15.5557329 C143.589066,15.5549423 143.589066,15.5541517 143.589855,15.5533611 L143.641184,15.492485 C143.685405,15.4308184 143.72015,15.3873355 143.749367,15.343062 L143.848865,15.2197286 C143.874134,15.1881047 143.88361,15.1730833 143.892297,15.158062 L144.133144,14.8196859 C144.1671,14.7698782 144.187631,14.7422073 144.204214,14.7129551 C144.257911,14.6354765 144.276863,14.6046432 144.296604,14.5690662 L144.419002,14.3753697 C144.444272,14.329515 144.457696,14.3042158 144.473489,14.2789167 C144.504286,14.2306902 144.538242,14.1785107 144.567459,14.1200064 C144.610891,14.048062 144.628263,14.0219722 144.640898,13.9927201 L144.679591,13.9231474 C144.761716,13.7729338 144.810676,13.6812244 144.854107,13.5903056 C144.91728,13.4669722 144.972557,13.3610321 145.023885,13.2511389 L145.072054,13.1349209 C145.102851,13.0756261 145.12891,13.0171218 145.155759,12.9586175 L145.217352,12.8107756 C145.29237,12.6257756 145.347647,12.4961175 145.390289,12.3601346 L145.609026,11.7150064 C145.657985,11.5521432 145.702996,11.4019295 145.736162,11.2517158 C145.781962,11.0793654 145.818287,10.9236175 145.850663,10.7662885 L145.862508,10.6959252 C145.895674,10.5591517 145.916205,10.4223782 145.939105,10.2800705 C146.013333,9.85710043 146.059134,9.42701496 146.077296,8.9921859 C146.082824,8.86489957 146.088352,8.77635256 146.088352,8.68306197 C146.240757,7.16827564 147.420514,6.04641667 148.894817,5.96735684 L170.506335,5.96735684 C170.715596,5.96735684 170.944598,5.96735684 171.190973,5.98000641 L171.280205,5.98712179 C171.373386,5.98475 171.449193,5.99265598 171.515525,6.00056197 C171.641082,6.00451496 171.796645,6.01716453 171.952209,6.03692949 C171.986954,6.0306047 172.081714,6.04167308 172.174894,6.05906624 C172.277551,6.06539103 172.423639,6.07962179 172.568147,6.10650214 C172.681069,6.11282692 172.834264,6.13496368 172.992196,6.16421581 L173.17066,6.19346795 C173.361759,6.22272009 173.551278,6.25908761 173.739218,6.30019872 L173.833188,6.32470726 C174.046398,6.36502778 174.233548,6.41483547 174.419909,6.46464316 C174.69866,6.5405406 174.967146,6.61960043 175.234842,6.70498504 C175.443313,6.76427991 175.664419,6.84017735 175.879997,6.92239957 C176.099523,7.0006688 176.332474,7.0939594 176.557528,7.19436538 C176.984737,7.36987821 177.413524,7.57701496 177.856525,7.82130983 C178.213453,8.00710043 178.583016,8.22846795 178.979427,8.49015598 L179.659328,8.96451496 C179.855954,9.10049786 180.046263,9.25150214 180.235782,9.41041239 C180.628245,9.7306047 180.975697,10.0405192 181.294721,10.3543868 C181.466078,10.5077628 181.642173,10.6896004 181.804055,10.8769722 C181.950932,11.0358825 182.109654,11.2129765 182.26206,11.3908611 C182.89616,12.1316517 183.450504,12.9167158 183.911667,13.7247073 C184.124876,14.0923355 184.333348,14.4979124 184.566298,14.9999423 C184.793722,15.5059252 184.965868,15.9312671 185.108008,16.3439594 C185.188553,16.5716517 185.262782,16.8001346 185.330693,17.0349423 C185.495733,17.5994295 185.615762,18.1030406 185.698676,18.5750278 C185.740528,18.7790021 185.778432,18.9877201 185.803702,19.204344 C185.912675,19.9198355 185.967952,20.6780192 185.967952,21.4417372 L185.967952,349.071203 C185.967952,352.481053 184.860053,355.732784 182.762706,358.47537 C182.649784,358.619259 182.540811,358.75287 182.431837,358.886481 C182.110444,359.277036 181.749568,359.673126 181.357105,360.066053 C181.017549,360.400476 180.666939,360.719088 180.313169,361.013981 L180.172609,361.123874 C179.765932,361.452763 179.330038,361.769002 178.875981,362.065476 C178.357172,362.405434 177.851787,362.695583 177.332189,362.952528 L177.228743,363.001545 C176.995792,363.117763 176.757313,363.225284 176.515676,363.328062 L176.420917,363.364429 C176.176121,363.468788 175.923428,363.566823 175.669157,363.65537 C175.099809,363.859344 174.51151,364.030904 173.927948,364.163724 C173.21804,364.323425 172.480494,364.4349 171.735841,364.495776 L171.405762,364.515541 L171.26836,364.047506 L171.313371,364.519494 L170.506335,364.545583 Z M19.7492542,1.49098932 C9.21750837,2.08393803 0.947359634,10.8477201 0.947359634,21.4417372 L0.947359634,349.065669 C0.947359634,359.424878 9.02088209,368.178382 19.3275737,368.993489 C19.4768202,369.005348 19.6426496,369.016417 19.8021616,369.022741 C20.2119971,369.040135 20.5602389,369.051994 20.9108496,369.051994 L170.511863,369.051994 C170.855366,369.051994 171.19887,369.040135 171.536846,369.022741 L171.626078,369.022741 C171.769797,369.017207 171.936416,369.006139 172.09119,368.988746 C182.403409,368.177592 190.469035,359.42725 190.469035,349.065669 L190.469035,21.4417372 C190.469035,10.8097714 182.16809,2.04361752 171.571591,1.48466453 L171.472094,1.47833974 C171.161756,1.46727137 170.839573,1.46094658 170.511863,1.46094658 L20.9108496,1.46094658 C20.5768218,1.46094658 20.242794,1.46727137 19.9150836,1.47913034 L19.7492542,1.49098932 Z M170.511863,369.999921 L20.9108496,369.999921 C20.5452353,369.999921 20.1796209,369.988062 19.8203239,369.970669 C19.5944801,369.964344 19.4136471,369.952485 19.2525557,369.939045 C8.45627249,369.085989 -0.000236899133,359.91663 -0.000236899133,349.065669 L-0.000236899133,21.4417372 C-0.000236899133,10.3448996 8.6631644,1.16526282 19.7231953,0.543061966 L19.8424345,0.533574786 C20.2198938,0.518553419 20.5657665,0.512228632 20.9108496,0.512228632 L170.511863,0.512228632 C170.852208,0.512228632 171.185446,0.518553419 171.517105,0.530412393 L171.624499,0.536737179 C182.723223,1.12494231 191.416632,10.3069509 191.416632,21.4417372 L191.416632,349.065669 C191.416632,359.919002 182.967229,369.085199 172.180422,369.933511 C172.017751,369.951694 171.826653,369.963553 171.643451,369.970669 L171.560536,369.970669 C171.231246,369.988062 170.871949,369.999921 170.511863,369.999921 L170.511863,369.999921 Z" id="Fill-3" fill="#D8D8D8" mask="url(#mask-2)"></path>
        </g>
    </g>
</svg>