<?xml version="1.0" encoding="UTF-8"?>
<svg width="392px" height="755px" viewBox="0 0 392 755" version="1.1" xmlns="http://www.w3.org/2000/svg" xmlns:xlink="http://www.w3.org/1999/xlink">
    <title>Group 6</title>
    <g id="Page-1" stroke="none" stroke-width="1" fill="none" fill-rule="evenodd">
        <g id="Group-6">
            <path d="M379.362281,712.206063 C379.362281,719.161758 376.983828,725.631233 372.996564,730.831043 C372.778283,731.112113 372.558385,731.378646 372.338487,731.646794 C371.667476,732.464161 370.949574,733.242759 370.205802,733.98582 C369.547726,734.63196 368.850844,735.265177 368.132943,735.862856 L368.120008,735.862856 C367.21778,736.604302 366.267045,737.298902 365.279122,737.946657 C364.291199,738.591181 363.28064,739.174323 362.21834,739.699311 L362.207021,739.699311 C361.68153,739.967459 361.144721,740.211377 360.598211,740.440757 L360.585275,740.440757 C360.048466,740.673367 359.487403,740.893054 358.926341,741.088512 C357.804215,741.490734 356.646518,741.831572 355.464568,742.09972 C354.049785,742.414714 352.597813,742.634401 351.110269,742.757168 C350.976067,742.768475 350.841864,742.781398 350.707662,742.794321 L350.513634,742.794321 L350.379432,742.805628 L350.232295,742.805628 C350.098092,742.816936 349.976825,742.816936 349.855558,742.829858 C349.721356,742.829858 349.600089,742.842781 349.465886,742.842781 C349.197482,742.842781 348.929077,742.854089 348.673608,742.854089 L42.364109,742.854089 C42.1086395,742.854089 41.8402349,742.842781 41.5718303,742.842781 C41.3034256,742.829858 41.035021,742.816936 40.7666164,742.805628 L40.6566675,742.805628 L40.5337835,742.794321 L40.339756,742.794321 C40.2055537,742.781398 40.0713514,742.768475 39.9242139,742.757168 C24.0867243,741.514964 11.6754359,728.089795 11.6754359,712.206063 L11.6754359,42.7939368 C11.6754359,26.6420574 24.2322449,13.2669639 40.3268209,12.2072946 L40.5952255,12.2072946 L41.0107676,12.1701416 C41.5103882,12.1459113 41.9485669,12.1459113 42.364109,12.1459113 L86.5619423,12.1459113 C89.0875328,12.2799853 91.1345223,14.2297121 91.3899917,16.7270424 C91.3899917,16.9580374 91.4029269,17.1777249 91.415862,17.3974124 C91.4530506,18.3213923 91.5500644,19.2356801 91.7085201,20.1370451 C91.757027,20.4536536 91.8055338,20.7589547 91.8782941,21.0626404 L91.8782941,21.0755632 C91.9526713,21.4519396 92.0383667,21.8186239 92.1337636,22.1836929 C92.2081407,22.5132242 92.3051545,22.8411401 92.4021682,23.1706714 C92.4280385,23.2433622 92.4522919,23.3289757 92.4765454,23.4016664 C92.5007988,23.4872799 92.5266691,23.5599707 92.5622408,23.6455842 C92.5735591,23.7182749 92.5994294,23.7796582 92.6220659,23.8394261 C92.6592545,23.9508852 92.6964431,24.0591136 92.7336317,24.1689574 C92.7821386,24.2901086 92.8177103,24.4128752 92.867834,24.5356417 C92.9632309,24.8393274 93.0861149,25.1317057 93.207382,25.4240839 C93.2332524,25.4967747 93.2688241,25.5694654 93.2930775,25.6550789 C93.3917081,25.8618436 93.4757867,26.0686084 93.5857356,26.2769885 C93.5986707,26.3254489 93.609989,26.3609866 93.6342424,26.3981397 C93.6471776,26.4223699 93.6471776,26.4352927 93.6601127,26.4595229 C93.7684447,26.7018254 93.8897119,26.9344357 94.0142128,27.1654307 C94.1096096,27.3721954 94.2195585,27.5805755 94.3295074,27.7744174 C94.366696,27.8358007 94.4038846,27.9084914 94.4394563,27.9698747 C94.4879631,28.0797185 94.5494052,28.1766394 94.6108472,28.2735604 C94.6836075,28.4205572 94.767686,28.5546312 94.8533815,28.6887052 C94.8792518,28.7242429 94.8905701,28.7613959 94.9148235,28.798549 C94.9520121,28.8583169 94.9875838,28.9083927 95.0134541,28.9568532 C95.0732792,29.0537742 95.1217861,29.1393877 95.1832281,29.2233859 C95.2430532,29.334845 95.3044953,29.431766 95.3772556,29.5286869 C95.4273793,29.6143005 95.4888213,29.6982986 95.5502634,29.7855275 C95.5858351,29.833988 95.6100885,29.8824485 95.6456602,29.9196015 C95.7200374,30.0278299 95.7798625,30.1247509 95.8542397,30.2232872 C95.9027465,30.2959779 95.9512534,30.3686687 96.0126954,30.4300519 C96.0741374,30.5398957 96.1468977,30.6368167 96.2325932,30.7337376 C96.2439114,30.7595832 96.2681649,30.7838135 96.2811,30.8080437 C96.2940352,30.832274 96.3166717,30.8565042 96.3409252,30.8678116 C96.4153023,30.9776554 96.5009978,31.0874992 96.5850764,31.1973429 C96.6093298,31.2458034 96.6465184,31.2829565 96.683707,31.3201095 C96.7694024,31.4412607 96.8664161,31.5640273 96.9634299,31.6722557 L96.976365,31.6722557 C97.1590742,31.8919432 97.3417834,32.1116307 97.5358108,32.3313183 C97.5972528,32.4153164 97.6570779,32.4880072 97.7314551,32.5623132 L97.7427734,32.5623132 C97.8171506,32.6592342 97.902846,32.7448477 97.9885415,32.8304612 C98.07262,32.9273822 98.1712507,33.0243032 98.2682644,33.1212241 C98.3523429,33.2197605 98.4396553,33.305374 98.5350521,33.3893722 C98.6951247,33.5605992 98.8535805,33.7189035 99.0362896,33.8772077 C99.1575568,34.0112817 99.2788239,34.1211255 99.4259614,34.2422767 C99.5116569,34.3165828 99.5860341,34.3892735 99.6701126,34.4619642 C99.8657569,34.6331912 100.07272,34.8028029 100.268364,34.9611072 C100.451073,35.1194114 100.6451,35.2664082 100.840745,35.4247125 C100.962012,35.5216335 101.073578,35.607247 101.194845,35.6928605 C101.329047,35.8027043 101.46325,35.8996252 101.60877,35.9965462 C101.60877,36.009469 101.621705,36.009469 101.621705,36.009469 C101.755908,36.10639 101.89011,36.2049263 102.034014,36.2889245 C102.097072,36.3503077 102.158514,36.3874608 102.21834,36.4229985 C102.449556,36.5699953 102.682389,36.7282995 102.913605,36.8623735 C103.096314,36.9964475 103.279023,37.1046759 103.461732,37.2032123 C103.694565,37.3502091 103.924164,37.4826677 104.169932,37.5925115 C104.254011,37.6538948 104.352641,37.7023552 104.438337,37.7508157 C104.460973,37.7637385 104.473909,37.775046 104.498162,37.775046 C104.667936,37.8719669 104.840944,37.9591958 105.023653,38.043194 C105.169174,38.1288075 105.329246,38.2014982 105.49902,38.2741889 C105.633223,38.348495 105.778743,38.408263 105.925881,38.4696462 C105.998641,38.5067993 106.073018,38.5310295 106.157097,38.5681825 C106.216922,38.6037202 106.278364,38.6279505 106.351124,38.6521807 L106.364059,38.6521807 C106.742413,38.810485 107.107831,38.9574818 107.486185,39.0915558 C107.838668,39.212707 108.179833,39.3354735 108.533933,39.4453173 C108.923604,39.5664685 109.303575,39.6763123 109.693247,39.7732333 C110.47259,39.9686905 111.277804,40.1383022 112.083018,40.2594534 C112.411248,40.3095293 112.752413,40.3579898 113.093577,40.3951428 C113.167955,40.4064502 113.22778,40.4064502 113.302157,40.419373 C113.594815,40.4436033 113.887473,40.4678335 114.167196,40.479141 C114.508361,40.5033712 114.836591,40.516294 115.168054,40.5276015 C115.278003,40.5276015 115.386335,40.5276015 115.484966,40.5405242 L275.552751,40.5405242 C275.648148,40.5276015 275.759713,40.5276015 275.868045,40.5276015 C276.197892,40.516294 276.526122,40.5033712 276.868904,40.479141 C277.148627,40.4678335 277.441285,40.4436033 277.733943,40.419373 C277.806703,40.4064502 277.868145,40.4064502 277.940905,40.3951428 C278.28207,40.3579898 278.624852,40.3095293 278.953082,40.2594534 C279.758296,40.1383022 280.563509,39.9686905 281.34447,39.7732333 C281.734142,39.6763123 282.112495,39.5664685 282.502167,39.4453173 C282.85465,39.3354735 283.195815,39.212707 283.549915,39.0915558 C283.929886,38.9574818 284.293687,38.810485 284.67204,38.6521807 L284.683359,38.6521807 C284.757736,38.6279505 284.817561,38.6037202 284.879003,38.5681825 C284.964699,38.5310295 285.037459,38.5067993 285.111836,38.4696462 C285.257357,38.408263 285.404494,38.348495 285.538696,38.2741889 C285.70847,38.2014982 285.866926,38.1288075 286.014064,38.043194 C286.196773,37.9591958 286.366547,37.8719669 286.537938,37.775046 C286.560574,37.775046 286.573509,37.7637385 286.59938,37.7508157 C286.685075,37.7023552 286.780472,37.6538948 286.866167,37.5925115 C287.110319,37.4826677 287.343152,37.3502091 287.572751,37.2032123 C287.757077,37.1046759 287.939786,36.9964475 288.122495,36.8623735 C288.355328,36.7282995 288.584927,36.5699953 288.81776,36.4229985 C288.879202,36.3874608 288.939027,36.3503077 289.000469,36.2889245 C289.147607,36.2049263 289.280192,36.10639 289.416011,36.009469 C289.416011,36.009469 289.42733,36.009469 289.42733,35.9965462 C289.574467,35.8996252 289.708669,35.8027043 289.842872,35.6928605 C289.964139,35.607247 290.072471,35.5216335 290.196972,35.4247125 C290.390999,35.2664082 290.586644,35.1194114 290.769353,34.9611072 C290.96338,34.8028029 291.170343,34.6331912 291.365987,34.4619642 C291.451682,34.3892735 291.524443,34.3165828 291.610138,34.2422767 C291.755659,34.1211255 291.878543,34.0112817 291.99981,33.8772077 C292.182519,33.7189035 292.342592,33.5605992 292.499431,33.3893722 C292.598061,33.305374 292.683757,33.2197605 292.767835,33.1212241 C292.866466,33.0243032 292.961863,32.9273822 293.049175,32.8304612 C293.134871,32.7448477 293.220566,32.6592342 293.293326,32.5623132 L293.304645,32.5623132 C293.304645,32.5623132 293.315963,32.5493904 293.315963,32.538083 C293.450165,32.404009 293.584367,32.2570122 293.695933,32.0987079 C293.8172,31.9646339 293.938467,31.8192525 294.061352,31.6722557 L294.07267,31.6722557 C294.1713,31.5640273 294.268314,31.4412607 294.35401,31.3201095 C294.389581,31.2829565 294.42677,31.2458034 294.451023,31.1973429 C294.536719,31.0874992 294.622414,30.9776554 294.695174,30.8678116 C294.719428,30.8565042 294.743681,30.832274 294.756617,30.8080437 C294.767935,30.7838135 294.792188,30.7595832 294.805123,30.7337376 C294.890819,30.6368167 294.963579,30.5398957 295.025021,30.4300519 C295.084846,30.3686687 295.133353,30.2959779 295.18186,30.2232872 C295.25462,30.1247509 295.317679,30.0278299 295.388823,29.9196015 C295.426011,29.8695257 295.461583,29.833988 295.487453,29.7855275 C295.548895,29.6982986 295.60872,29.6143005 295.657227,29.5286869 C295.729987,29.431766 295.79143,29.334845 295.854488,29.2233859 C295.914314,29.1393877 295.96282,29.0537742 296.024262,28.9568532 C296.059834,28.8954699 296.097023,28.8453941 296.122893,28.798549 C296.14553,28.7613959 296.158465,28.7242429 296.182718,28.6887052 C296.266797,28.5546312 296.352492,28.4205572 296.426869,28.2735604 C296.486694,28.1766394 296.548137,28.0797185 296.596643,27.9698747 C296.646767,27.897184 296.682339,27.8358007 296.706592,27.7744174 C296.814924,27.5805755 296.92649,27.3721954 297.023504,27.1654307 C297.144771,26.9344357 297.267655,26.7018254 297.377604,26.4595229 C297.390539,26.4352927 297.390539,26.4223699 297.401857,26.3981397 C297.426111,26.3609866 297.439046,26.3254489 297.450364,26.2769885 C297.560313,26.0686084 297.646008,25.8618436 297.743022,25.6550789 C297.767276,25.5694654 297.804464,25.4967747 297.827101,25.4240839 C297.949985,25.1317057 298.072869,24.8393274 298.169883,24.5356417 C298.218389,24.4128752 298.255578,24.2901086 298.304085,24.1689574 C298.341273,24.0591136 298.376845,23.9508852 298.414034,23.8394261 C298.438287,23.7796582 298.462541,23.7182749 298.475476,23.6455842 C298.511047,23.5599707 298.535301,23.4743571 298.559554,23.4016664 C298.583808,23.3160529 298.609678,23.2433622 298.632315,23.1706714 C298.730945,22.8411401 298.827959,22.5132242 298.900719,22.1836929 C298.99935,21.8186239 299.085045,21.4519396 299.157806,21.0755632 L299.157806,21.0626404 C299.228949,20.7589547 299.279073,20.4536536 299.32758,20.1370451 C299.487652,19.2356801 299.583049,18.3213923 299.621855,17.3974124 C299.631556,17.1777249 299.644491,16.9580374 299.644491,16.7270424 C299.89996,14.2297121 301.950184,12.2799853 304.474157,12.1459113 L348.673608,12.1459113 C349.085916,12.1459113 349.538647,12.1459113 350.025332,12.1701416 L350.17247,12.1830644 L350.31799,12.1830644 C350.416621,12.1830644 350.524953,12.1943718 350.623583,12.2072946 C350.92756,12.2202174 351.221835,12.2444476 351.512876,12.2799853 C351.647078,12.2799853 351.78128,12.2929081 351.915483,12.3171384 C352.183887,12.3413686 352.452292,12.3655988 352.71908,12.4140593 C353.037608,12.4382896 353.35452,12.4883654 353.671431,12.5481333 C353.682749,12.5481333 353.70862,12.5481333 353.721555,12.5594408 C354.183987,12.6224394 354.635101,12.7064376 355.084598,12.8033586 C355.17191,12.8275888 355.257605,12.8534344 355.343301,12.8647418 C355.720037,12.9374326 356.085456,13.0359689 356.450874,13.1328898 C356.987683,13.2782713 357.524493,13.4365755 358.061302,13.6078026 C358.488162,13.7305691 358.915023,13.8759506 359.328948,14.0342548 C359.780061,14.1925591 360.231175,14.3750936 360.669354,14.5705509 C361.560263,14.9356199 362.413984,15.3507647 363.25477,15.8127546 C364.024412,16.2149766 364.768184,16.6656591 365.486085,17.1405719 C365.646158,17.2504156 365.802997,17.3602594 365.974387,17.4701032 C366.267045,17.6768679 366.559704,17.8836326 366.852362,18.0903974 C367.242033,18.3585454 367.607452,18.6509236 367.97287,18.9546093 C368.705324,19.5522886 369.413524,20.1741982 370.082918,20.8316454 C370.435402,21.1482539 370.766865,21.4890926 371.070841,21.8428542 C371.387753,22.1836929 371.704664,22.5374544 372.008641,22.8896006 C373.240715,24.3272617 374.338587,25.8618436 375.278003,27.5062694 C375.75337,28.3236362 376.178614,29.1749254 376.581221,30.0407527 C376.970892,30.9049647 377.337928,31.7820994 377.654839,32.6963872 C377.813295,33.1470697 377.960432,33.5977522 378.094635,34.0597422 C378.385676,35.0596435 378.642762,36.0708523 378.825471,37.1046759 C378.911167,37.5198207 378.983927,37.9220428 379.032434,38.3355722 C379.252332,39.7845407 379.362281,41.283585 379.362281,42.7939368 L379.362281,712.206063 Z M350.903306,1.04846048 L350.707662,1.03715304 C350.038267,1.0129228 349.367256,1 348.683309,1 L42.364109,1 C41.668844,1 40.973579,1.0129228 40.2912492,1.03715304 L40.0842866,1.06138328 L39.985656,1.06138328 C17.8438915,2.30358702 0.517241379,20.6248807 0.517241379,42.7939368 L0.517241379,712.19314 C0.517241379,733.875976 17.4283495,752.17304 39.0462398,753.878849 C39.3647682,753.901464 39.7172513,753.927309 40.0584162,753.938617 L40.1813003,753.938617 C40.9008187,753.97577 41.6316554,754 42.364109,754 L348.683309,754 C349.404444,754 350.123963,753.97577 350.830546,753.938617 L350.966365,753.938617 C351.317231,753.927309 351.684267,753.901464 352.025432,753.865926 C373.606133,752.17304 390.517241,733.864669 390.517241,712.19314 L390.517241,42.7939368 C390.517241,20.5521899 373.119448,2.21958885 350.903306,1.04846048 L350.903306,1.04846048 Z" id="Fill-1" fill="#FFFFFF"></path>
            <path d="M40.9894575,742.813944 L42.816817,742.875379 L350.08142,742.851128 C350.107272,742.844662 350.18321,742.841428 350.260763,742.838195 L351.296429,742.779994 C352.752177,742.658741 354.194999,742.440486 355.579656,742.131696 C356.71711,741.873024 357.862643,741.538366 358.982325,741.135807 C359.536511,740.941803 360.08585,740.726782 360.610953,740.500443 L360.71759,740.460026 C361.223305,740.246621 361.71771,740.018666 362.20242,739.77131 L362.321982,739.716343 C363.304329,739.226482 364.255978,738.67842 365.228631,738.041439 C366.217441,737.393141 367.159396,736.702809 368.025412,735.988227 L368.16921,735.876675 C368.804181,735.341546 369.44723,734.757916 370.077354,734.138719 C370.846429,733.370786 371.552491,732.593152 372.174536,731.834919 C372.434664,731.516428 372.628548,731.278773 372.824048,731.028184 C376.918238,725.681749 379.081664,719.337809 379.081664,712.686696 L379.081664,42.7139229 C379.081664,41.22494 378.973412,39.7472741 378.756908,38.324576 C378.708437,37.9074668 378.637346,37.5194582 378.554945,37.1185161 C378.391759,36.1921456 378.155867,35.212424 377.834342,34.1082163 C377.70347,33.6539229 377.558057,33.2109465 377.402949,32.76797 C377.125048,31.964469 376.788982,31.1318672 376.34628,30.1489122 C375.892267,29.1708073 375.483495,28.3770064 375.065028,27.6575739 C374.166697,26.0812891 373.085792,24.5518887 371.851396,23.1097901 C371.550875,22.7605824 371.239044,22.4113747 370.927214,22.0734839 C370.60892,21.7064925 370.290627,21.3815353 369.970718,21.0937623 C369.334131,20.4680985 368.655536,19.8634518 367.879999,19.2313212 C367.521313,18.9322313 367.167474,18.6493084 366.791015,18.3890193 L365.908842,17.7633555 C365.769891,17.6744368 365.624478,17.5742013 365.477449,17.4739657 C364.664751,16.9339872 363.948995,16.5087944 363.246164,16.1401863 C362.378532,15.6632591 361.551292,15.2639336 360.703048,14.9147259 C360.265193,14.7191049 359.824106,14.5412677 359.387867,14.3876809 C358.972631,14.2292441 358.560627,14.0869743 358.147007,13.968955 C357.604131,13.7959679 357.074181,13.6407645 356.54423,13.4952612 C356.185544,13.3998758 355.834937,13.3061071 355.473019,13.2365889 C355.390619,13.2252719 355.288829,13.197788 355.185424,13.1686874 C354.768573,13.0765353 354.329102,12.9957002 353.879937,12.9358822 L353.705441,12.8954647 C353.40492,12.8469636 353.156102,12.8113961 352.905668,12.7919957 C352.605148,12.7386445 352.349867,12.7160107 352.097817,12.6949936 C351.947557,12.6691263 351.844152,12.6594261 351.739131,12.6594261 C351.399834,12.6206253 351.120317,12.5979914 350.827875,12.5850578 C350.711544,12.5721242 350.622681,12.562424 350.543511,12.562424 L350.210677,12.5478737 C349.748586,12.5252398 349.305883,12.5252398 348.900342,12.5252398 L304.733499,12.5252398 C302.461821,12.6464925 300.624767,14.3909143 300.390491,16.6736981 C300.392106,16.8402184 300.382412,17.0471563 300.372718,17.2508608 C300.329094,18.2693833 300.22892,19.2135375 300.06735,20.1221242 C300.018879,20.4422313 299.968792,20.7591049 299.892854,21.0759786 C299.821763,21.4575203 299.734515,21.834212 299.634342,22.2109036 C299.563251,22.5310107 299.463077,22.8721349 299.361288,23.2116424 L299.291813,23.4347473 C299.24011,23.5915675 299.217491,23.6643191 299.185177,23.7386874 C299.194871,23.7532377 299.159325,23.8502398 299.125396,23.9294582 L298.884656,24.6197901 C298.794177,24.9059465 298.668152,25.2115032 298.538896,25.51706 L298.356321,25.9648865 C298.29654,26.0958394 298.236759,26.2267923 298.1689,26.3577452 C298.151127,26.42403 298.118813,26.5016317 298.063879,26.5808501 C297.968553,26.8168887 297.844143,27.0577773 297.718119,27.2970493 C297.624408,27.4959036 297.508077,27.7141585 297.394978,27.9194797 C297.380437,27.9679807 297.322272,28.0617495 297.267338,28.145818 C297.252796,28.1943191 297.188168,28.3010214 297.121924,28.4093405 C297.042755,28.5613105 296.95066,28.7084304 296.856949,28.8555503 L296.388396,28.705197 L296.742234,29.0544047 L296.289838,28.8652505 L296.645292,29.2096081 C296.603284,29.280743 296.561276,29.3454111 296.516036,29.4116959 C296.472412,29.4973812 296.399705,29.612167 296.314073,29.7269529 C296.288222,29.7786874 296.218747,29.8756895 296.147656,29.9759251 L296.068486,30.0874775 C295.957003,30.2523812 295.902069,30.3364497 295.839057,30.4205182 C295.797048,30.4851863 295.74373,30.5595546 295.683949,30.6290728 C295.614474,30.742242 295.533689,30.8521777 295.436747,30.9637302 C295.410896,31.0170814 295.370503,31.0704325 295.317185,31.1189336 C295.249325,31.2143191 295.176619,31.3097045 295.102296,31.4050899 C295.090986,31.4422741 295.01828,31.5166424 294.971424,31.5651435 C294.922953,31.6443619 294.81147,31.7833983 294.701602,31.9062677 L294.554573,32.0679379 C294.46571,32.1714069 294.393003,32.2554754 294.321912,32.3346938 C294.250821,32.4413961 294.140953,32.5691156 294.021391,32.6952184 L293.782267,32.9571242 C293.743491,33.0007752 293.703098,33.0428094 293.659474,33.083227 C293.585152,33.1689122 293.483362,33.2739979 293.376726,33.3774668 C293.302404,33.4663854 293.20223,33.566621 293.087515,33.6668565 C292.955028,33.8155931 292.782148,33.9853469 292.585032,34.1567173 C292.491321,34.2666531 292.353986,34.3911392 292.187569,34.5285589 L291.950061,34.7435803 C291.754561,34.9149507 291.542904,35.0895546 291.345788,35.2512248 C291.237536,35.3433769 291.113127,35.4419957 290.988718,35.5406146 L290.772214,35.7136017 C290.636495,35.8219208 290.520164,35.9124561 290.390908,36.0029914 C290.329511,36.0547259 290.25842,36.1096938 290.182482,36.1646617 L290.182482,36.3958501 L289.848032,36.4039336 C289.744627,36.4783019 289.655763,36.5381199 289.563668,36.5947045 C289.482883,36.6658394 289.403714,36.7143405 289.332623,36.7563747 L289.120966,36.8937944 C288.959396,36.9988801 288.797825,37.1039657 288.637871,37.1961178 C288.477916,37.3173704 288.275953,37.4370064 288.073991,37.5453255 C287.855871,37.6859786 287.602205,37.8298651 287.33723,37.9511178 C287.343693,37.9575846 287.258061,38.0060857 287.17566,38.05297 C287.114263,38.0853041 287.060945,38.1160214 287.004396,38.1370385 C286.839594,38.232424 286.669945,38.3148758 286.492218,38.3989443 C286.367809,38.4733126 286.191697,38.5557645 286.001044,38.6365996 C285.900871,38.6948009 285.744148,38.7610857 285.587424,38.8273704 C285.545416,38.8483876 285.488867,38.8710214 285.429086,38.8952719 C285.290135,38.9664069 285.18673,39.003591 285.109177,39.0294582 L285.075247,39.0407752 C284.708482,39.1943619 284.354643,39.335015 283.987879,39.4643512 L283.739061,39.5500364 C283.466007,39.6454218 283.1978,39.7391906 282.921515,39.8248758 C282.524053,39.9493619 282.136284,40.0609143 281.738821,40.1611499 C280.861495,40.3794047 280.064953,40.5426916 279.305573,40.6574775 C278.969507,40.7075953 278.620515,40.7577131 278.273139,40.7948972 L278.053404,40.8191478 C277.748036,40.845015 277.452362,40.8692655 277.169615,40.8821991 C276.835164,40.904833 276.502329,40.9193833 276.166263,40.9307002 C276.062858,40.9307002 275.973995,40.9290835 275.896441,40.9387837 L115.88373,40.9436338 C115.74478,40.9290835 115.659148,40.9307002 115.567053,40.9307002 C115.213214,40.9193833 114.880379,40.904833 114.533003,40.8805824 C114.259949,40.8692655 113.96266,40.845015 113.662139,40.8191478 L113.419784,40.7916638 C113.095028,40.7577131 112.749267,40.7075953 112.414817,40.6574775 C111.657053,40.5426916 110.837891,40.3761713 109.979953,40.1611499 C109.580875,40.0609143 109.191491,39.9493619 108.794028,39.8248758 C108.517743,39.7391906 108.249536,39.6454218 107.976482,39.5500364 L107.732511,39.4659679 C107.3609,39.3333983 107.000598,39.1911285 106.632218,39.0375418 L106.603135,39.0278415 C106.517503,39.0003576 106.418945,38.9615567 106.312309,38.8985054 C106.226677,38.8710214 106.168511,38.8467709 106.110346,38.8176702 C105.982705,38.7659358 105.821135,38.6980343 105.674106,38.6155824 C105.525462,38.5557645 105.347734,38.4733126 105.184548,38.3779272 C105.063371,38.3229593 104.922805,38.2534411 104.779007,38.1758394 L104.77416,38.1758394 L104.617437,38.0950043 C104.457482,38.0060857 104.37185,37.9575846 104.292681,37.901 C104.113338,37.8314818 103.862904,37.6875953 103.610854,37.5275418 C103.437974,37.4370064 103.236011,37.3157537 103.034048,37.1670171 C102.917718,37.102349 102.752916,36.9956467 102.58973,36.8889443 L102.368379,36.7466745 C102.311829,36.7143405 102.208424,36.6529058 102.103404,36.5494368 C102.05978,36.5365032 101.974148,36.4783019 101.873974,36.4087837 L101.545986,36.4087837 L101.539524,36.1678951 C101.457123,36.1080771 101.376338,36.0466424 101.298784,35.9819743 C101.195379,35.9108394 101.077433,35.8203041 100.946561,35.7152184 L100.747829,35.5567816 C100.615342,35.4516959 100.486086,35.3498437 100.361677,35.2399079 C100.172639,35.0911713 99.962598,34.9149507 99.7606352,34.7403469 L99.5215112,34.5237088 C99.3615567,34.3911392 99.224222,34.2666531 99.0868872,34.1146831 C98.9333955,33.9869636 98.7637468,33.8155931 98.594098,33.6329058 C98.5133129,33.5650043 98.4115236,33.463152 98.3129658,33.3483662 C98.2337963,33.2723812 98.1287757,33.1672955 98.0350649,33.0605931 C97.9736682,33.0007752 97.9009616,32.9264069 97.8298707,32.8423383 L97.8040195,32.8180878 C97.7103087,32.7243191 97.632755,32.6337837 97.5552013,32.5254647 C97.4194823,32.3751113 97.2676063,32.1940407 97.1141145,32.0097366 L97.0107096,31.9030343 C96.9040732,31.7801649 96.7958211,31.6443619 96.698879,31.5085589 C96.6908005,31.5085589 96.6164782,31.4309572 96.5615443,31.3194047 C96.535693,31.2967709 96.4839906,31.2337195 96.4290567,31.1577345 L96.3951269,31.1415675 L96.2626393,30.9394797 C96.1818542,30.850561 96.1026848,30.7438587 96.0348253,30.6306895 C95.9669658,30.5547045 95.9152633,30.4771028 95.8716393,30.410818 C95.8231682,30.3493833 95.7730815,30.2717816 95.7197633,30.1909465 C95.6680608,30.1214283 95.6308996,30.0696938 95.5937385,30.0131092 C95.4887178,29.8627559 95.4240897,29.7706039 95.3723872,29.6800685 C95.3174534,29.6105503 95.243131,29.4957645 95.1720401,29.3631949 C95.1494203,29.340561 95.1041806,29.264576 95.0524782,29.1821242 L95.3740029,28.7747152 L94.9668459,29.0398544 L94.8682881,28.873334 C94.7648831,28.7084304 94.6711724,28.5596938 94.5903872,28.3980236 C94.5403005,28.3236552 94.4708253,28.205636 94.4110443,28.0746831 L94.3205649,27.9194797 C94.2058501,27.7141585 94.0911352,27.4942869 93.9893459,27.2776488 C93.8713996,27.0577773 93.7469906,26.8168887 93.6338914,26.5630664 C93.5789575,26.4709143 93.5514906,26.3787623 93.5321021,26.304394 C93.4965567,26.2623597 93.4303129,26.1184732 93.3640691,25.9745867 L93.2073459,25.5978951 L93.603193,25.2794047 L93.1556434,25.4653255 C93.0344658,25.1759358 92.9149038,24.886546 92.821193,24.5858394 L92.577222,23.8955075 C92.5578335,23.8486231 92.5319823,23.7774882 92.5109782,23.6885696 C92.4770484,23.6028844 92.4511972,23.523666 92.4253459,23.4347473 L92.354255,23.2116424 C92.2540815,22.8721349 92.1539079,22.5326274 92.0779699,22.1931199 C91.9826434,21.834212 91.8953955,21.4575203 91.8194575,21.0711285 C91.7483666,20.7591049 91.6966641,20.4422313 91.6449616,20.112424 C91.4850071,19.1973704 91.3848335,18.2532163 91.3476724,17.3139122 C91.3363625,17.0940407 91.3234368,16.864469 91.3234368,16.6235803 C91.0907757,14.3909143 89.2553377,12.6464925 86.9578087,12.5252398 L42.816817,12.5252398 L42.8071228,12.5252398 C42.4031972,12.5252398 41.975036,12.5252398 41.4887096,12.5494904 L40.7826476,12.5850578 C25.0133914,13.6278308 12.6354947,26.8605396 12.6354947,42.7139229 L12.6354947,712.686696 C12.6354947,728.336375 24.8372798,741.554533 40.4174988,742.779994 L40.8408129,742.815561 L40.9894575,742.813944 Z M348.900342,743.843784 L42.0251228,743.832467 L40.9393707,743.782349 L40.7939575,743.783966 L40.3431765,743.746782 C24.2620897,742.48252 11.6660732,728.839169 11.6660732,712.686696 L11.6660732,42.7139229 C11.6660732,26.3512784 24.4414327,12.6933769 40.7503335,11.6166531 L41.4224658,11.5810857 C41.9491848,11.5552184 42.3951187,11.5552184 42.816817,11.5552184 L86.9820443,11.5552184 C89.7869038,11.703955 92.0084947,13.8153683 92.2896269,16.5750792 C92.2912426,16.8466852 92.3041682,17.0568565 92.3170939,17.2670278 C92.3526393,18.1723812 92.4479658,19.0728844 92.6030732,19.9539872 C92.6499286,20.2676274 92.6967839,20.5602505 92.7662591,20.8528737 L92.7791848,20.9773597 C92.8421972,21.2505824 92.9262137,21.606257 93.0199244,21.9619315 C93.0958625,22.2982056 93.1879575,22.6166959 93.2832839,22.9351863 L93.3608377,23.1760749 C93.3769947,23.2391263 93.3963831,23.2940942 93.4254658,23.3587623 L93.7324492,24.2592655 C93.8326228,24.566439 93.9408749,24.8299615 94.0507426,25.0934839 L94.1072922,25.2389872 C94.129912,25.2971884 94.1541476,25.3570064 94.173536,25.4216745 L94.2478583,25.5752612 C94.3076393,25.7029807 94.3641889,25.8290835 94.4304327,25.956803 L94.4740567,26.0748223 C94.6227013,26.3997794 94.7390319,26.6228844 94.8553625,26.8459893 C94.9587674,27.0642441 95.0637881,27.2598651 95.167193,27.4457859 L95.2980649,27.6802077 C95.3352261,27.7675096 95.3853129,27.8451113 95.4353996,27.9243298 C95.5226476,28.0973169 95.6002013,28.2153362 95.6761393,28.3365889 L95.7407674,28.449758 C95.8086269,28.5580771 95.8360939,28.6001113 95.857098,28.6421456 C95.9184947,28.737531 95.9508087,28.7941156 95.9912013,28.8474668 C96.0719864,28.9897366 96.1220732,29.068955 96.1818542,29.1481734 C96.2497137,29.2613426 96.2965691,29.324394 96.3418087,29.3906788 L96.0299782,29.791621 L96.4225939,29.5070814 L96.5292302,29.655818 C96.5696228,29.7188694 96.6083996,29.7803041 96.655255,29.8401221 C96.7118046,29.9241906 96.7425029,29.9710749 96.7667385,29.9937088 L96.8491393,30.1020278 C96.8895319,30.1747794 96.9396187,30.2459143 97.0090939,30.3235161 L97.1561228,30.5062034 C97.2239823,30.6080557 97.3031517,30.7082912 97.3823211,30.8101435 L97.4938046,30.9507966 C97.5309658,31.002531 97.5681269,31.0558822 97.6085195,31.106 L97.7603955,31.2725203 C97.9768996,31.5328094 98.1400856,31.7268137 98.3113501,31.920818 C98.3307385,31.9450685 98.3468955,31.9677024 98.3630525,31.9887195 L98.3856724,31.9887195 L98.5423955,32.1794904 C98.6021765,32.2603255 98.6732674,32.328227 98.7427426,32.3993619 C98.8413005,32.5109143 98.9317798,32.599833 99.0206434,32.6887516 C99.1175856,32.7986874 99.1886765,32.8682056 99.2694616,32.9393405 C99.4488046,33.1284946 99.5958335,33.2756146 99.7638666,33.4227345 C99.9125112,33.5811713 100.019148,33.6765567 100.146788,33.7816424 L100.397222,34.0079807 C100.589491,34.1761178 100.791453,34.3426381 100.982106,34.4962248 C101.108131,34.6061606 101.227693,34.6999293 101.348871,34.7953148 L101.555681,34.9618351 C101.667164,35.0507537 101.770569,35.1299722 101.882053,35.2091906 C101.993536,35.2997259 102.090478,35.3708608 102.185805,35.4387623 L102.21004,35.4549293 C102.235891,35.4727131 102.261743,35.4904968 102.28921,35.5082805 L102.502482,35.6651006 C102.563879,35.7087516 102.625276,35.7475525 102.689904,35.7847366 L103.118065,36.0773597 C103.26671,36.1743619 103.415354,36.271364 103.565615,36.3570493 C103.772424,36.5057859 103.93561,36.602788 104.098796,36.6900899 C104.341152,36.84206 104.551193,36.9649293 104.775776,37.0651649 C104.906648,37.1476167 104.956734,37.1751006 105.006821,37.2009679 C105.010053,37.2025846 105.011668,37.2042013 105.0149,37.205818 L105.032672,37.205818 L105.145772,37.2688694 C105.30411,37.3594047 105.464065,37.4402398 105.635329,37.5194582 C105.804978,37.6164604 105.945544,37.6811285 106.094189,37.7441799 C106.257375,37.8298651 106.386631,37.8832163 106.515887,37.9365675 L106.467416,38.444212 L106.645143,37.993152 L106.95859,38.1224882 C107.32697,38.2760749 107.68404,38.4199615 108.05242,38.5509143 L108.294776,38.6349829 C108.558135,38.7255182 108.816648,38.8160535 109.081623,38.8985054 C109.462929,39.0165246 109.832924,39.1248437 110.21423,39.2202291 C111.044701,39.427167 111.831548,39.5888373 112.556999,39.6971563 C112.878524,39.7456574 113.212974,39.7941585 113.547424,39.8297259 L113.77847,39.8572099 C114.028904,39.8766103 114.313267,39.9008608 114.587937,39.9121777 C114.936929,39.938045 115.260069,39.9493619 115.58321,39.9606788 C115.697924,39.9671456 115.828796,39.9622955 115.945127,39.9784625 L275.833429,39.9736124 C275.885131,39.9622955 276.017619,39.9606788 276.148491,39.9606788 C276.455474,39.9493619 276.778615,39.938045 277.114681,39.9137944 C277.399044,39.9008608 277.681792,39.878227 277.962924,39.8539764 L278.221437,40.3131199 L278.168119,39.8297259 C278.502569,39.7941585 278.838635,39.7456574 279.161776,39.6971563 C279.890457,39.5872206 280.6563,39.4320171 281.504544,39.2202291 C281.884234,39.1248437 282.252615,39.0165246 282.63392,38.8985054 C282.898896,38.8160535 283.157408,38.7255182 283.420767,38.6349829 L283.66797,38.5492976 C284.033119,38.4199615 284.390189,38.2760749 284.758569,38.1208715 L285.19804,37.9381842 C285.338606,37.8799829 285.464631,37.8282484 285.579346,37.765197 C285.771615,37.6795118 285.912181,37.6164604 286.043053,37.5404754 C286.253094,37.4402398 286.411433,37.3594047 286.571387,37.2688694 L286.702259,37.205818 C286.779813,37.162167 286.820205,37.1411499 286.854135,37.1152827 C287.16435,36.9649293 287.376007,36.8436767 287.586048,36.7094904 C287.781548,36.602788 287.944734,36.5057859 288.10792,36.3845332 C288.298573,36.271364 288.445602,36.1775953 288.592631,36.0805931 L289.028871,35.7847366 C289.091883,35.7475525 289.15328,35.7071349 289.213061,35.6651006 L289.213061,35.6505503 L289.429565,35.5066638 C289.562053,35.4177452 289.68323,35.3304433 289.807639,35.2302077 C289.948205,35.1299722 290.049995,35.049137 290.16471,34.9586017 L290.387677,34.7807645 C290.500776,34.6902291 290.613875,34.6013105 290.722127,34.5075418 C290.92409,34.3426381 291.126053,34.1761178 291.316705,34.0095974 L291.562292,33.7881092 C291.696396,33.6765567 291.803032,33.5811713 291.908053,33.463152 C292.11971,33.2772313 292.266738,33.1301113 292.413767,32.9732912 C292.530098,32.8665889 292.601189,32.795454 292.670664,32.7146188 C292.785379,32.599833 292.875858,32.5092976 292.956643,32.4171456 C293.009962,32.3637944 293.056817,32.3169101 293.100441,32.2716424 L293.100441,32.2473919 L293.355722,31.9887195 C293.430044,31.9078844 293.502751,31.8221991 293.565763,31.7332805 C293.704714,31.5716103 293.804887,31.4519743 293.908292,31.3307216 L294.068247,31.1545011 C294.123181,31.0882163 294.176499,31.0203148 294.22497,30.9507966 L294.624048,31.225636 L294.304139,30.8586445 C294.414007,30.7099079 294.491561,30.6096724 294.557805,30.5110535 L294.666057,30.3817173 C294.77754,30.2442976 294.827627,30.1747794 294.868019,30.1020278 L294.945573,29.9985589 C294.985966,29.959758 295.013433,29.911257 295.045747,29.8627559 C295.111991,29.7738373 295.15723,29.7043191 295.205701,29.628334 L295.313953,29.4779807 C295.410896,29.3389443 295.462598,29.2678094 295.504606,29.1966745 C295.595086,29.0673383 295.645172,28.9881199 295.696875,28.8959679 L296.042635,28.3317388 C296.115342,28.2153362 296.194511,28.0940835 296.260755,27.9615139 C296.338309,27.8289443 296.385164,27.7594261 296.419094,27.6802077 L296.54835,27.4457859 C296.653371,27.2598651 296.756776,27.0626274 296.850486,26.8653897 C296.976511,26.6228844 297.094457,26.3997794 297.201094,26.1653576 L297.268953,26.0263212 C297.356201,25.8242334 297.414367,25.6948972 297.472532,25.565561 L297.569474,25.353773 C297.569474,25.353773 297.567858,25.353773 297.567858,25.353773 C297.563011,25.353773 297.585631,25.2988051 297.606635,25.2438373 C297.761743,24.8606788 297.879689,24.582606 297.9734,24.2899829 L298.291693,23.3587623 C298.312697,23.3134946 298.327238,23.268227 298.340164,23.224576 L298.419334,22.9756039 C298.52597,22.6166959 298.622912,22.2998223 298.692387,21.9813319 C298.790945,21.606257 298.874962,21.2505824 298.944437,20.8852077 C299.018759,20.5602505 299.065615,20.2676274 299.110854,19.9636874 C299.265962,19.0874347 299.362904,18.1869315 299.400065,17.2751113 C299.414606,17.0132056 299.4243,16.8224347 299.4243,16.6235803 C299.707048,13.8153683 301.928639,11.703955 304.707648,11.5552184 L348.900342,11.5552184 C349.320424,11.5552184 349.7809,11.5552184 350.275305,11.579469 L350.440106,11.5940193 L350.543511,11.5924026 C350.661457,11.5924026 350.790714,11.6053362 350.907044,11.6198865 C351.186561,11.6295867 351.493544,11.655454 351.798912,11.6926381 C351.89747,11.6942548 352.065503,11.703955 352.227073,11.7346724 C352.467813,11.7540728 352.750561,11.77994 353.030077,11.8316745 C353.316057,11.8510749 353.650507,11.9011927 353.986573,11.9658608 L354.067358,11.9820278 C354.521371,12.0434625 354.967305,12.127531 355.410007,12.2245332 C355.511796,12.2520171 355.574809,12.2714176 355.636205,12.2795011 C356.040131,12.3571028 356.411743,12.4557216 356.783354,12.5559572 C357.342387,12.7063105 357.885263,12.8679807 358.428139,13.0409679 C358.854685,13.1622206 359.29254,13.3125739 359.722317,13.4774775 C360.171482,13.6359143 360.633573,13.8218351 361.08597,14.0223062 C361.955218,14.3795974 362.814772,14.7950899 363.705024,15.2849507 C364.428858,15.6648758 365.172081,16.1062355 365.968623,16.6348972 C366.165738,16.7707002 366.303073,16.864469 366.450102,16.9598544 L367.346817,17.5936017 C367.742664,17.8668244 368.120738,18.167531 368.497197,18.482788 C369.292123,19.1310857 369.991722,19.7551328 370.633156,20.3872634 C370.969222,20.6863533 371.316598,21.0420278 371.649433,21.426803 C371.958032,21.7614604 372.276325,22.1187516 372.58654,22.4760428 C373.861329,23.9682591 374.97778,25.5477773 375.906809,27.1725632 C376.336586,27.9146296 376.758284,28.7342976 377.228453,29.7447366 C377.685697,30.7616424 378.031457,31.6184946 378.319053,32.447863 C378.479007,32.9053897 378.627652,33.3661499 378.764986,33.8366103 C379.097821,34.9747687 379.340177,35.9884411 379.50821,36.9358287 C379.593842,37.3513212 379.668164,37.7668137 379.718251,38.1952398 C379.939602,39.6502719 380.051086,41.176439 380.051086,42.7139229 L380.051086,712.686696 C380.051086,719.552831 377.816569,726.100475 373.591507,731.623131 C373.389544,731.881803 373.189197,732.125925 372.98885,732.371664 C372.281172,733.233366 371.552491,734.033634 370.759181,734.827435 C370.061197,735.512916 369.355135,736.153131 368.65392,736.735143 L368.505276,736.846696 C367.650569,737.545111 366.728003,738.219276 365.758581,738.853024 C364.719685,739.533655 363.703408,740.117285 362.64997,740.636246 L362.540102,740.686364 C362.039234,740.940186 361.525441,741.172991 361.003569,741.392863 L360.90178,741.430047 C360.384755,741.653152 359.84511,741.863323 359.305466,742.050861 C358.151854,742.464737 356.96916,742.810711 355.792929,743.079084 C354.363032,743.397574 352.878201,743.622296 351.375598,743.746782 L348.900342,743.843784 Z M40.6356187,753.969191 C41.372379,754.006375 42.0929823,754.030625 42.816817,754.030625 L348.911652,754.030625 C349.622561,754.030625 350.331854,754.006375 351.031453,753.969191 L351.191408,753.969191 C351.516164,753.957874 351.870003,753.933623 352.197991,753.898056 C373.53011,752.223152 390.230011,734.116086 390.230011,712.673762 L390.230011,42.7139229 C390.230011,20.715454 373.043784,2.57443683 351.10416,1.41849465 L351.099313,1.41849465 L350.903813,1.40556103 C350.252685,1.38292719 349.588631,1.36999358 348.911652,1.36999358 L42.816817,1.36999358 C42.1301434,1.36999358 41.4386228,1.38292719 40.7632591,1.40717773 L40.4417344,1.43142827 C18.6087468,2.65850535 1.48553188,20.7930557 1.48553188,42.7139229 L1.48553188,712.673762 C1.48553188,734.111236 18.2015897,752.224769 39.5401724,753.910989 C39.8487715,753.932006 40.1945319,753.957874 40.5289823,753.969191 L40.6356187,753.969191 Z M348.911652,755.000647 L42.816817,755.000647 C42.0768253,755.000647 41.3368335,754.976396 40.6097674,754.939212 L40.514441,754.939212 C40.1509079,754.927895 39.7889906,754.902028 39.4658501,754.876161 C17.6247839,753.151139 0.51772609,734.61403 0.51772609,712.673762 L0.51772609,42.7139229 C0.51772609,20.2789443 18.0416352,1.71920128 40.4142674,0.463023555 L40.6889368,0.440389722 C41.4160029,0.412905782 42.1172178,0.399972163 42.816817,0.399972163 L348.911652,0.399972163 C349.599941,0.399972163 350.27692,0.412905782 350.950668,0.437156317 L351.154247,0.448473233 C373.60928,1.63351606 391.197817,20.1981092 391.197817,42.7139229 L391.197817,712.673762 C391.197817,734.617263 374.106916,753.151139 352.286854,754.864844 C351.947557,754.900411 351.569482,754.927895 351.205949,754.939212 L351.057305,754.939212 C350.3674,754.976396 349.640334,755.000647 348.911652,755.000647 L348.911652,755.000647 Z" id="Fill-3" fill="#D8D8D8"></path>
        </g>
    </g>
</svg>