<?xml version="1.0" encoding="UTF-8" standalone="no"?>
<!DOCTYPE svg PUBLIC "-//W3C//DTD SVG 1.1//EN"
 "http://www.w3.org/Graphics/SVG/1.1/DTD/svg11.dtd">
<!-- Generated by graphviz version 12.2.1 (20241206.2353)
 -->
<!-- Title: G Pages: 1 -->
<svg width="1371pt" height="1072pt"
 viewBox="0.00 0.00 1371.20 1071.95" xmlns="http://www.w3.org/2000/svg" xmlns:xlink="http://www.w3.org/1999/xlink">
<g id="graph0" class="graph" transform="scale(1 1) rotate(0) translate(21.6 1050.35)">
<title>G</title>
<polygon fill="#111111" stroke="none" points="-21.6,21.6 -21.6,-1050.35 1349.6,-1050.35 1349.6,21.6 -21.6,21.6"/>
<!-- .storybook/HoverDecorator.js -->
<g id="node1" class="node">
<title>.storybook/HoverDecorator.js</title>
<path fill="none" stroke="#cfffac" d="M523.21,-23.75C523.21,-23.75 349.04,-23.75 349.04,-23.75 345.08,-23.75 341.12,-19.79 341.12,-15.83 341.12,-15.83 341.12,-7.92 341.12,-7.92 341.12,-3.96 345.08,0 349.04,0 349.04,0 523.21,0 523.21,0 527.17,0 531.12,-3.96 531.12,-7.92 531.12,-7.92 531.12,-15.83 531.12,-15.83 531.12,-19.79 527.17,-23.75 523.21,-23.75"/>
<text text-anchor="middle" x="436.12" y="-6.45" font-family="Arial" font-size="14.00" fill="#cfffac">.storybook/HoverDecorator.js</text>
</g>
<!-- .storybook/main.js -->
<g id="node2" class="node">
<title>.storybook/main.js</title>
<path fill="none" stroke="#cfffac" d="M189.21,-65.75C189.21,-65.75 79.54,-65.75 79.54,-65.75 75.58,-65.75 71.62,-61.79 71.62,-57.83 71.62,-57.83 71.62,-49.92 71.62,-49.92 71.62,-45.96 75.58,-42 79.54,-42 79.54,-42 189.21,-42 189.21,-42 193.17,-42 197.12,-45.96 197.12,-49.92 197.12,-49.92 197.12,-57.83 197.12,-57.83 197.12,-61.79 193.17,-65.75 189.21,-65.75"/>
<text text-anchor="middle" x="134.38" y="-48.45" font-family="Arial" font-size="14.00" fill="#cfffac">.storybook/main.js</text>
</g>
<!-- .storybook/manager.js -->
<g id="node3" class="node">
<title>.storybook/manager.js</title>
<path fill="none" stroke="#cfffac" d="M200.83,-107.75C200.83,-107.75 67.92,-107.75 67.92,-107.75 63.96,-107.75 60,-103.79 60,-99.83 60,-99.83 60,-91.92 60,-91.92 60,-87.96 63.96,-84 67.92,-84 67.92,-84 200.83,-84 200.83,-84 204.79,-84 208.75,-87.96 208.75,-91.92 208.75,-91.92 208.75,-99.83 208.75,-99.83 208.75,-103.79 204.79,-107.75 200.83,-107.75"/>
<text text-anchor="middle" x="134.38" y="-90.45" font-family="Arial" font-size="14.00" fill="#cfffac">.storybook/manager.js</text>
</g>
<!-- .storybook/preview.js -->
<g id="node4" class="node">
<title>.storybook/preview.js</title>
<path fill="none" stroke="#c6c5fe" d="M197.08,-23.75C197.08,-23.75 71.67,-23.75 71.67,-23.75 67.71,-23.75 63.75,-19.79 63.75,-15.83 63.75,-15.83 63.75,-7.92 63.75,-7.92 63.75,-3.96 67.71,0 71.67,0 71.67,0 197.08,0 197.08,0 201.04,0 205,-3.96 205,-7.92 205,-7.92 205,-15.83 205,-15.83 205,-19.79 201.04,-23.75 197.08,-23.75"/>
<text text-anchor="middle" x="134.38" y="-6.45" font-family="Arial" font-size="14.00" fill="#c6c5fe">.storybook/preview.js</text>
</g>
<!-- .storybook/preview.js&#45;&gt;.storybook/HoverDecorator.js -->
<g id="edge1" class="edge">
<title>.storybook/preview.js&#45;&gt;.storybook/HoverDecorator.js</title>
<path fill="none" stroke="#757575" d="M205.27,-11.88C242.12,-11.88 288.08,-11.88 329.2,-11.88"/>
<polygon fill="#757575" stroke="#757575" points="329.15,-15.38 339.15,-11.88 329.15,-8.38 329.15,-15.38"/>
</g>
<!-- src/App.css -->
<g id="node5" class="node">
<title>src/App.css</title>
<path fill="none" stroke="#cfffac" d="M756.33,-212.75C756.33,-212.75 686.42,-212.75 686.42,-212.75 682.46,-212.75 678.5,-208.79 678.5,-204.83 678.5,-204.83 678.5,-196.92 678.5,-196.92 678.5,-192.96 682.46,-189 686.42,-189 686.42,-189 756.33,-189 756.33,-189 760.29,-189 764.25,-192.96 764.25,-196.92 764.25,-196.92 764.25,-204.83 764.25,-204.83 764.25,-208.79 760.29,-212.75 756.33,-212.75"/>
<text text-anchor="middle" x="721.38" y="-195.45" font-family="Arial" font-size="14.00" fill="#cfffac">src/App.css</text>
</g>
<!-- src/App.js -->
<g id="node6" class="node">
<title>src/App.js</title>
<path fill="none" stroke="#c6c5fe" d="M465.83,-191.75C465.83,-191.75 406.42,-191.75 406.42,-191.75 402.46,-191.75 398.5,-187.79 398.5,-183.83 398.5,-183.83 398.5,-175.92 398.5,-175.92 398.5,-171.96 402.46,-168 406.42,-168 406.42,-168 465.83,-168 465.83,-168 469.79,-168 473.75,-171.96 473.75,-175.92 473.75,-175.92 473.75,-183.83 473.75,-183.83 473.75,-187.79 469.79,-191.75 465.83,-191.75"/>
<text text-anchor="middle" x="436.12" y="-174.45" font-family="Arial" font-size="14.00" fill="#c6c5fe">src/App.js</text>
</g>
<!-- src/App.js&#45;&gt;src/App.css -->
<g id="edge2" class="edge">
<title>src/App.js&#45;&gt;src/App.css</title>
<path fill="none" stroke="#757575" d="M474.15,-182.62C523.4,-186.27 610.76,-192.75 667.08,-196.92"/>
<polygon fill="#757575" stroke="#757575" points="666.52,-200.39 676.75,-197.64 667.04,-193.41 666.52,-200.39"/>
</g>
<!-- src/logo.svg -->
<g id="node7" class="node">
<title>src/logo.svg</title>
<path fill="none" stroke="#cfffac" d="M757.46,-170.75C757.46,-170.75 685.29,-170.75 685.29,-170.75 681.33,-170.75 677.38,-166.79 677.38,-162.83 677.38,-162.83 677.38,-154.92 677.38,-154.92 677.38,-150.96 681.33,-147 685.29,-147 685.29,-147 757.46,-147 757.46,-147 761.42,-147 765.38,-150.96 765.38,-154.92 765.38,-154.92 765.38,-162.83 765.38,-162.83 765.38,-166.79 761.42,-170.75 757.46,-170.75"/>
<text text-anchor="middle" x="721.38" y="-153.45" font-family="Arial" font-size="14.00" fill="#cfffac">src/logo.svg</text>
</g>
<!-- src/App.js&#45;&gt;src/logo.svg -->
<g id="edge3" class="edge">
<title>src/App.js&#45;&gt;src/logo.svg</title>
<path fill="none" stroke="#757575" d="M474.15,-177.13C523.12,-173.5 609.76,-167.08 666.12,-162.9"/>
<polygon fill="#757575" stroke="#757575" points="666.09,-166.41 675.8,-162.18 665.57,-159.43 666.09,-166.41"/>
</g>
<!-- src/App.test.js -->
<g id="node8" class="node">
<title>src/App.test.js</title>
<path fill="none" stroke="#c6c5fe" d="M176.83,-191.75C176.83,-191.75 91.92,-191.75 91.92,-191.75 87.96,-191.75 84,-187.79 84,-183.83 84,-183.83 84,-175.92 84,-175.92 84,-171.96 87.96,-168 91.92,-168 91.92,-168 176.83,-168 176.83,-168 180.79,-168 184.75,-171.96 184.75,-175.92 184.75,-175.92 184.75,-183.83 184.75,-183.83 184.75,-187.79 180.79,-191.75 176.83,-191.75"/>
<text text-anchor="middle" x="134.38" y="-174.45" font-family="Arial" font-size="14.00" fill="#c6c5fe">src/App.test.js</text>
</g>
<!-- src/App.test.js&#45;&gt;src/App.js -->
<g id="edge4" class="edge">
<title>src/App.test.js&#45;&gt;src/App.js</title>
<path fill="none" stroke="#757575" d="M185.21,-179.88C241.32,-179.88 331.85,-179.88 387.17,-179.88"/>
<polygon fill="#757575" stroke="#757575" points="386.9,-183.38 396.9,-179.88 386.9,-176.38 386.9,-183.38"/>
</g>
<!-- src/index.css -->
<g id="node9" class="node">
<title>src/index.css</title>
<path fill="none" stroke="#cfffac" d="M475.21,-149.75C475.21,-149.75 397.04,-149.75 397.04,-149.75 393.08,-149.75 389.12,-145.79 389.12,-141.83 389.12,-141.83 389.12,-133.92 389.12,-133.92 389.12,-129.96 393.08,-126 397.04,-126 397.04,-126 475.21,-126 475.21,-126 479.17,-126 483.12,-129.96 483.12,-133.92 483.12,-133.92 483.12,-141.83 483.12,-141.83 483.12,-145.79 479.17,-149.75 475.21,-149.75"/>
<text text-anchor="middle" x="436.12" y="-132.45" font-family="Arial" font-size="14.00" fill="#cfffac">src/index.css</text>
</g>
<!-- src/index.js -->
<g id="node10" class="node">
<title>src/index.js</title>
<path fill="none" stroke="#c6c5fe" d="M168.21,-149.75C168.21,-149.75 100.54,-149.75 100.54,-149.75 96.58,-149.75 92.62,-145.79 92.62,-141.83 92.62,-141.83 92.62,-133.92 92.62,-133.92 92.62,-129.96 96.58,-126 100.54,-126 100.54,-126 168.21,-126 168.21,-126 172.17,-126 176.12,-129.96 176.12,-133.92 176.12,-133.92 176.12,-141.83 176.12,-141.83 176.12,-145.79 172.17,-149.75 168.21,-149.75"/>
<text text-anchor="middle" x="134.38" y="-132.45" font-family="Arial" font-size="14.00" fill="#c6c5fe">src/index.js</text>
</g>
<!-- src/index.js&#45;&gt;src/App.js -->
<g id="edge5" class="edge">
<title>src/index.js&#45;&gt;src/App.js</title>
<path fill="none" stroke="#757575" d="M176.43,-143.63C231.44,-151.34 328.91,-164.99 387.21,-173.16"/>
<polygon fill="#757575" stroke="#757575" points="386.44,-176.59 396.83,-174.51 387.41,-169.66 386.44,-176.59"/>
</g>
<!-- src/index.js&#45;&gt;src/index.css -->
<g id="edge6" class="edge">
<title>src/index.js&#45;&gt;src/index.css</title>
<path fill="none" stroke="#757575" d="M176.43,-137.88C228.44,-137.88 318.38,-137.88 377.32,-137.88"/>
<polygon fill="#757575" stroke="#757575" points="377.16,-141.38 387.16,-137.88 377.16,-134.38 377.16,-141.38"/>
</g>
<!-- src/reportWebVitals.js -->
<g id="node11" class="node">
<title>src/reportWebVitals.js</title>
<path fill="none" stroke="#cfffac" d="M501.83,-107.75C501.83,-107.75 370.42,-107.75 370.42,-107.75 366.46,-107.75 362.5,-103.79 362.5,-99.83 362.5,-99.83 362.5,-91.92 362.5,-91.92 362.5,-87.96 366.46,-84 370.42,-84 370.42,-84 501.83,-84 501.83,-84 505.79,-84 509.75,-87.96 509.75,-91.92 509.75,-91.92 509.75,-99.83 509.75,-99.83 509.75,-103.79 505.79,-107.75 501.83,-107.75"/>
<text text-anchor="middle" x="436.12" y="-90.45" font-family="Arial" font-size="14.00" fill="#cfffac">src/reportWebVitals.js</text>
</g>
<!-- src/index.js&#45;&gt;src/reportWebVitals.js -->
<g id="edge7" class="edge">
<title>src/index.js&#45;&gt;src/reportWebVitals.js</title>
<path fill="none" stroke="#757575" d="M176.43,-132.12C221.15,-125.86 293.91,-115.66 350.9,-107.68"/>
<polygon fill="#757575" stroke="#757575" points="351.15,-111.18 360.57,-106.32 350.18,-104.24 351.15,-111.18"/>
</g>
<!-- src/setupTests.js -->
<g id="node12" class="node">
<title>src/setupTests.js</title>
<path fill="none" stroke="#cfffac" d="M184.33,-233.75C184.33,-233.75 84.42,-233.75 84.42,-233.75 80.46,-233.75 76.5,-229.79 76.5,-225.83 76.5,-225.83 76.5,-217.92 76.5,-217.92 76.5,-213.96 80.46,-210 84.42,-210 84.42,-210 184.33,-210 184.33,-210 188.29,-210 192.25,-213.96 192.25,-217.92 192.25,-217.92 192.25,-225.83 192.25,-225.83 192.25,-229.79 188.29,-233.75 184.33,-233.75"/>
<text text-anchor="middle" x="134.38" y="-216.45" font-family="Arial" font-size="14.00" fill="#cfffac">src/setupTests.js</text>
</g>
<!-- src/stories/Atoms/Avatar.js -->
<g id="node13" class="node">
<title>src/stories/Atoms/Avatar.js</title>
<path fill="none" stroke="#c6c5fe" d="M516.08,-275.75C516.08,-275.75 356.17,-275.75 356.17,-275.75 352.21,-275.75 348.25,-271.79 348.25,-267.83 348.25,-267.83 348.25,-259.92 348.25,-259.92 348.25,-255.96 352.21,-252 356.17,-252 356.17,-252 516.08,-252 516.08,-252 520.04,-252 524,-255.96 524,-259.92 524,-259.92 524,-267.83 524,-267.83 524,-271.79 520.04,-275.75 516.08,-275.75"/>
<text text-anchor="middle" x="436.12" y="-258.45" font-family="Arial" font-size="14.00" fill="#c6c5fe">src/stories/Atoms/Avatar.js</text>
</g>
<!-- src/stories/Atoms/avatar.css -->
<g id="node14" class="node">
<title>src/stories/Atoms/avatar.css</title>
<path fill="none" stroke="#cfffac" d="M805.83,-275.75C805.83,-275.75 636.92,-275.75 636.92,-275.75 632.96,-275.75 629,-271.79 629,-267.83 629,-267.83 629,-259.92 629,-259.92 629,-255.96 632.96,-252 636.92,-252 636.92,-252 805.83,-252 805.83,-252 809.79,-252 813.75,-255.96 813.75,-259.92 813.75,-259.92 813.75,-267.83 813.75,-267.83 813.75,-271.79 809.79,-275.75 805.83,-275.75"/>
<text text-anchor="middle" x="721.38" y="-258.45" font-family="Arial" font-size="14.00" fill="#cfffac">src/stories/Atoms/avatar.css</text>
</g>
<!-- src/stories/Atoms/Avatar.js&#45;&gt;src/stories/Atoms/avatar.css -->
<g id="edge8" class="edge">
<title>src/stories/Atoms/Avatar.js&#45;&gt;src/stories/Atoms/avatar.css</title>
<path fill="none" stroke="#757575" d="M524.42,-263.88C553.95,-263.88 587.2,-263.88 617.81,-263.88"/>
<polygon fill="#757575" stroke="#757575" points="617.44,-267.38 627.44,-263.88 617.44,-260.38 617.44,-267.38"/>
</g>
<!-- src/stories/Atoms/Avatar.stories.js -->
<g id="node15" class="node">
<title>src/stories/Atoms/Avatar.stories.js</title>
<path fill="none" stroke="#c6c5fe" d="M236.08,-275.75C236.08,-275.75 32.67,-275.75 32.67,-275.75 28.71,-275.75 24.75,-271.79 24.75,-267.83 24.75,-267.83 24.75,-259.92 24.75,-259.92 24.75,-255.96 28.71,-252 32.67,-252 32.67,-252 236.08,-252 236.08,-252 240.04,-252 244,-255.96 244,-259.92 244,-259.92 244,-267.83 244,-267.83 244,-271.79 240.04,-275.75 236.08,-275.75"/>
<text text-anchor="middle" x="134.38" y="-258.45" font-family="Arial" font-size="14.00" fill="#c6c5fe">src/stories/Atoms/Avatar.stories.js</text>
</g>
<!-- src/stories/Atoms/Avatar.stories.js&#45;&gt;src/stories/Atoms/Avatar.js -->
<g id="edge9" class="edge">
<title>src/stories/Atoms/Avatar.stories.js&#45;&gt;src/stories/Atoms/Avatar.js</title>
<path fill="none" stroke="#757575" d="M244.44,-263.88C274.72,-263.88 307.41,-263.88 337.02,-263.88"/>
<polygon fill="#757575" stroke="#757575" points="336.69,-267.38 346.69,-263.88 336.69,-260.38 336.69,-267.38"/>
</g>
<!-- src/stories/avatar.png -->
<g id="node16" class="node">
<title>src/stories/avatar.png</title>
<path fill="none" stroke="#cfffac" d="M500.33,-233.75C500.33,-233.75 371.92,-233.75 371.92,-233.75 367.96,-233.75 364,-229.79 364,-225.83 364,-225.83 364,-217.92 364,-217.92 364,-213.96 367.96,-210 371.92,-210 371.92,-210 500.33,-210 500.33,-210 504.29,-210 508.25,-213.96 508.25,-217.92 508.25,-217.92 508.25,-225.83 508.25,-225.83 508.25,-229.79 504.29,-233.75 500.33,-233.75"/>
<text text-anchor="middle" x="436.12" y="-216.45" font-family="Arial" font-size="14.00" fill="#cfffac">src/stories/avatar.png</text>
</g>
<!-- src/stories/Atoms/Avatar.stories.js&#45;&gt;src/stories/avatar.png -->
<g id="edge10" class="edge">
<title>src/stories/Atoms/Avatar.stories.js&#45;&gt;src/stories/avatar.png</title>
<path fill="none" stroke="#757575" d="M223.69,-251.5C264.33,-245.81 312.28,-239.09 352.23,-233.49"/>
<polygon fill="#757575" stroke="#757575" points="352.63,-236.97 362.04,-232.12 351.65,-230.04 352.63,-236.97"/>
</g>
<!-- src/stories/Atoms/Badge.js -->
<g id="node17" class="node">
<title>src/stories/Atoms/Badge.js</title>
<path fill="none" stroke="#c6c5fe" d="M516.46,-317.75C516.46,-317.75 355.79,-317.75 355.79,-317.75 351.83,-317.75 347.88,-313.79 347.88,-309.83 347.88,-309.83 347.88,-301.92 347.88,-301.92 347.88,-297.96 351.83,-294 355.79,-294 355.79,-294 516.46,-294 516.46,-294 520.42,-294 524.38,-297.96 524.38,-301.92 524.38,-301.92 524.38,-309.83 524.38,-309.83 524.38,-313.79 520.42,-317.75 516.46,-317.75"/>
<text text-anchor="middle" x="436.12" y="-300.45" font-family="Arial" font-size="14.00" fill="#c6c5fe">src/stories/Atoms/Badge.js</text>
</g>
<!-- src/stories/Atoms/badge.css -->
<g id="node18" class="node">
<title>src/stories/Atoms/badge.css</title>
<path fill="none" stroke="#cfffac" d="M806.21,-317.75C806.21,-317.75 636.54,-317.75 636.54,-317.75 632.58,-317.75 628.62,-313.79 628.62,-309.83 628.62,-309.83 628.62,-301.92 628.62,-301.92 628.62,-297.96 632.58,-294 636.54,-294 636.54,-294 806.21,-294 806.21,-294 810.17,-294 814.12,-297.96 814.12,-301.92 814.12,-301.92 814.12,-309.83 814.12,-309.83 814.12,-313.79 810.17,-317.75 806.21,-317.75"/>
<text text-anchor="middle" x="721.38" y="-300.45" font-family="Arial" font-size="14.00" fill="#cfffac">src/stories/Atoms/badge.css</text>
</g>
<!-- src/stories/Atoms/Badge.js&#45;&gt;src/stories/Atoms/badge.css -->
<g id="edge11" class="edge">
<title>src/stories/Atoms/Badge.js&#45;&gt;src/stories/Atoms/badge.css</title>
<path fill="none" stroke="#757575" d="M524.81,-305.88C553.91,-305.88 586.58,-305.88 616.77,-305.88"/>
<polygon fill="#757575" stroke="#757575" points="616.69,-309.38 626.69,-305.88 616.69,-302.38 616.69,-309.38"/>
</g>
<!-- src/stories/Atoms/Badge.stories.js -->
<g id="node19" class="node">
<title>src/stories/Atoms/Badge.stories.js</title>
<path fill="none" stroke="#c6c5fe" d="M236.46,-317.75C236.46,-317.75 32.29,-317.75 32.29,-317.75 28.33,-317.75 24.38,-313.79 24.38,-309.83 24.38,-309.83 24.38,-301.92 24.38,-301.92 24.38,-297.96 28.33,-294 32.29,-294 32.29,-294 236.46,-294 236.46,-294 240.42,-294 244.38,-297.96 244.38,-301.92 244.38,-301.92 244.38,-309.83 244.38,-309.83 244.38,-313.79 240.42,-317.75 236.46,-317.75"/>
<text text-anchor="middle" x="134.38" y="-300.45" font-family="Arial" font-size="14.00" fill="#c6c5fe">src/stories/Atoms/Badge.stories.js</text>
</g>
<!-- src/stories/Atoms/Badge.stories.js&#45;&gt;src/stories/Atoms/Badge.js -->
<g id="edge12" class="edge">
<title>src/stories/Atoms/Badge.stories.js&#45;&gt;src/stories/Atoms/Badge.js</title>
<path fill="none" stroke="#757575" d="M244.86,-305.88C274.69,-305.88 306.82,-305.88 336.03,-305.88"/>
<polygon fill="#757575" stroke="#757575" points="335.98,-309.38 345.98,-305.88 335.98,-302.38 335.98,-309.38"/>
</g>
<!-- src/stories/Atoms/Button.jsx -->
<g id="node20" class="node">
<title>src/stories/Atoms/Button.jsx</title>
<path fill="none" stroke="#c6c5fe" d="M1074.58,-482.75C1074.58,-482.75 907.17,-482.75 907.17,-482.75 903.21,-482.75 899.25,-478.79 899.25,-474.83 899.25,-474.83 899.25,-466.92 899.25,-466.92 899.25,-462.96 903.21,-459 907.17,-459 907.17,-459 1074.58,-459 1074.58,-459 1078.54,-459 1082.5,-462.96 1082.5,-466.92 1082.5,-466.92 1082.5,-474.83 1082.5,-474.83 1082.5,-478.79 1078.54,-482.75 1074.58,-482.75"/>
<text text-anchor="middle" x="990.88" y="-465.45" font-family="Arial" font-size="14.00" fill="#c6c5fe">src/stories/Atoms/Button.jsx</text>
</g>
<!-- src/stories/Atoms/button.css -->
<g id="node21" class="node">
<title>src/stories/Atoms/button.css</title>
<path fill="none" stroke="#cfffac" d="M1320.08,-482.75C1320.08,-482.75 1150.42,-482.75 1150.42,-482.75 1146.46,-482.75 1142.5,-478.79 1142.5,-474.83 1142.5,-474.83 1142.5,-466.92 1142.5,-466.92 1142.5,-462.96 1146.46,-459 1150.42,-459 1150.42,-459 1320.08,-459 1320.08,-459 1324.04,-459 1328,-462.96 1328,-466.92 1328,-466.92 1328,-474.83 1328,-474.83 1328,-478.79 1324.04,-482.75 1320.08,-482.75"/>
<text text-anchor="middle" x="1235.25" y="-465.45" font-family="Arial" font-size="14.00" fill="#cfffac">src/stories/Atoms/button.css</text>
</g>
<!-- src/stories/Atoms/Button.jsx&#45;&gt;src/stories/Atoms/button.css -->
<g id="edge13" class="edge">
<title>src/stories/Atoms/Button.jsx&#45;&gt;src/stories/Atoms/button.css</title>
<path fill="none" stroke="#757575" d="M1082.82,-470.88C1098.64,-470.88 1115.2,-470.88 1131.32,-470.88"/>
<polygon fill="#757575" stroke="#757575" points="1130.88,-474.38 1140.88,-470.88 1130.88,-467.38 1130.88,-474.38"/>
</g>
<!-- src/stories/Atoms/Button.stories.js -->
<g id="node22" class="node">
<title>src/stories/Atoms/Button.stories.js</title>
<path fill="none" stroke="#c6c5fe" d="M823.46,-443.75C823.46,-443.75 619.29,-443.75 619.29,-443.75 615.33,-443.75 611.38,-439.79 611.38,-435.83 611.38,-435.83 611.38,-427.92 611.38,-427.92 611.38,-423.96 615.33,-420 619.29,-420 619.29,-420 823.46,-420 823.46,-420 827.42,-420 831.38,-423.96 831.38,-427.92 831.38,-427.92 831.38,-435.83 831.38,-435.83 831.38,-439.79 827.42,-443.75 823.46,-443.75"/>
<text text-anchor="middle" x="721.38" y="-426.45" font-family="Arial" font-size="14.00" fill="#c6c5fe">src/stories/Atoms/Button.stories.js</text>
</g>
<!-- src/stories/Atoms/Button.stories.js&#45;&gt;src/stories/Atoms/Button.jsx -->
<g id="edge14" class="edge">
<title>src/stories/Atoms/Button.stories.js&#45;&gt;src/stories/Atoms/Button.jsx</title>
<path fill="none" stroke="#757575" d="M807.01,-444.21C834.71,-448.25 865.68,-452.77 894.14,-456.92"/>
<polygon fill="#757575" stroke="#757575" points="893.43,-460.35 903.83,-458.33 894.44,-453.42 893.43,-460.35"/>
</g>
<!-- src/stories/Atoms/ButtonShadow.jsx -->
<g id="node23" class="node">
<title>src/stories/Atoms/ButtonShadow.jsx</title>
<path fill="none" stroke="#cfffac" d="M1098.58,-440.75C1098.58,-440.75 883.17,-440.75 883.17,-440.75 879.21,-440.75 875.25,-436.79 875.25,-432.83 875.25,-432.83 875.25,-424.92 875.25,-424.92 875.25,-420.96 879.21,-417 883.17,-417 883.17,-417 1098.58,-417 1098.58,-417 1102.54,-417 1106.5,-420.96 1106.5,-424.92 1106.5,-424.92 1106.5,-432.83 1106.5,-432.83 1106.5,-436.79 1102.54,-440.75 1098.58,-440.75"/>
<text text-anchor="middle" x="990.88" y="-423.45" font-family="Arial" font-size="14.00" fill="#cfffac">src/stories/Atoms/ButtonShadow.jsx</text>
</g>
<!-- src/stories/Atoms/Button.stories.js&#45;&gt;src/stories/Atoms/ButtonShadow.jsx -->
<g id="edge15" class="edge">
<title>src/stories/Atoms/Button.stories.js&#45;&gt;src/stories/Atoms/ButtonShadow.jsx</title>
<path fill="none" stroke="#757575" d="M831.56,-430.65C842.18,-430.53 853.01,-430.41 863.77,-430.29"/>
<polygon fill="#757575" stroke="#757575" points="863.48,-433.79 873.44,-430.18 863.4,-426.79 863.48,-433.79"/>
</g>
<!-- src/stories/Atoms/Checkbox.js -->
<g id="node24" class="node">
<title>src/stories/Atoms/Checkbox.js</title>
<path fill="none" stroke="#c6c5fe" d="M526.96,-608.75C526.96,-608.75 345.29,-608.75 345.29,-608.75 341.33,-608.75 337.38,-604.79 337.38,-600.83 337.38,-600.83 337.38,-592.92 337.38,-592.92 337.38,-588.96 341.33,-585 345.29,-585 345.29,-585 526.96,-585 526.96,-585 530.92,-585 534.88,-588.96 534.88,-592.92 534.88,-592.92 534.88,-600.83 534.88,-600.83 534.88,-604.79 530.92,-608.75 526.96,-608.75"/>
<text text-anchor="middle" x="436.12" y="-591.45" font-family="Arial" font-size="14.00" fill="#c6c5fe">src/stories/Atoms/Checkbox.js</text>
</g>
<!-- src/stories/Atoms/checkbox.css -->
<g id="node25" class="node">
<title>src/stories/Atoms/checkbox.css</title>
<path fill="none" stroke="#cfffac" d="M815.96,-608.75C815.96,-608.75 626.79,-608.75 626.79,-608.75 622.83,-608.75 618.88,-604.79 618.88,-600.83 618.88,-600.83 618.88,-592.92 618.88,-592.92 618.88,-588.96 622.83,-585 626.79,-585 626.79,-585 815.96,-585 815.96,-585 819.92,-585 823.88,-588.96 823.88,-592.92 823.88,-592.92 823.88,-600.83 823.88,-600.83 823.88,-604.79 819.92,-608.75 815.96,-608.75"/>
<text text-anchor="middle" x="721.38" y="-591.45" font-family="Arial" font-size="14.00" fill="#cfffac">src/stories/Atoms/checkbox.css</text>
</g>
<!-- src/stories/Atoms/Checkbox.js&#45;&gt;src/stories/Atoms/checkbox.css -->
<g id="edge16" class="edge">
<title>src/stories/Atoms/Checkbox.js&#45;&gt;src/stories/Atoms/checkbox.css</title>
<path fill="none" stroke="#757575" d="M535,-596.88C558.33,-596.88 583.42,-596.88 607.36,-596.88"/>
<polygon fill="#757575" stroke="#757575" points="607.13,-600.38 617.13,-596.88 607.13,-593.38 607.13,-600.38"/>
</g>
<!-- src/stories/Atoms/Checkbox.stories.js -->
<g id="node26" class="node">
<title>src/stories/Atoms/Checkbox.stories.js</title>
<path fill="none" stroke="#c6c5fe" d="M246.96,-608.75C246.96,-608.75 21.79,-608.75 21.79,-608.75 17.83,-608.75 13.88,-604.79 13.88,-600.83 13.88,-600.83 13.88,-592.92 13.88,-592.92 13.88,-588.96 17.83,-585 21.79,-585 21.79,-585 246.96,-585 246.96,-585 250.92,-585 254.88,-588.96 254.88,-592.92 254.88,-592.92 254.88,-600.83 254.88,-600.83 254.88,-604.79 250.92,-608.75 246.96,-608.75"/>
<text text-anchor="middle" x="134.38" y="-591.45" font-family="Arial" font-size="14.00" fill="#c6c5fe">src/stories/Atoms/Checkbox.stories.js</text>
</g>
<!-- src/stories/Atoms/Checkbox.stories.js&#45;&gt;src/stories/Atoms/Checkbox.js -->
<g id="edge17" class="edge">
<title>src/stories/Atoms/Checkbox.stories.js&#45;&gt;src/stories/Atoms/Checkbox.js</title>
<path fill="none" stroke="#757575" d="M255.14,-596.88C278.43,-596.88 302.74,-596.88 325.69,-596.88"/>
<polygon fill="#757575" stroke="#757575" points="325.67,-600.38 335.67,-596.88 325.67,-593.38 325.67,-600.38"/>
</g>
<!-- src/stories/Atoms/DividerLine.js -->
<g id="node27" class="node">
<title>src/stories/Atoms/DividerLine.js</title>
<path fill="none" stroke="#c6c5fe" d="M530.71,-650.75C530.71,-650.75 341.54,-650.75 341.54,-650.75 337.58,-650.75 333.62,-646.79 333.62,-642.83 333.62,-642.83 333.62,-634.92 333.62,-634.92 333.62,-630.96 337.58,-627 341.54,-627 341.54,-627 530.71,-627 530.71,-627 534.67,-627 538.62,-630.96 538.62,-634.92 538.62,-634.92 538.62,-642.83 538.62,-642.83 538.62,-646.79 534.67,-650.75 530.71,-650.75"/>
<text text-anchor="middle" x="436.12" y="-633.45" font-family="Arial" font-size="14.00" fill="#c6c5fe">src/stories/Atoms/DividerLine.js</text>
</g>
<!-- src/stories/Atoms/divider&#45;line.css -->
<g id="node28" class="node">
<title>src/stories/Atoms/divider&#45;line.css</title>
<path fill="none" stroke="#cfffac" d="M820.08,-650.75C820.08,-650.75 622.67,-650.75 622.67,-650.75 618.71,-650.75 614.75,-646.79 614.75,-642.83 614.75,-642.83 614.75,-634.92 614.75,-634.92 614.75,-630.96 618.71,-627 622.67,-627 622.67,-627 820.08,-627 820.08,-627 824.04,-627 828,-630.96 828,-634.92 828,-634.92 828,-642.83 828,-642.83 828,-646.79 824.04,-650.75 820.08,-650.75"/>
<text text-anchor="middle" x="721.38" y="-633.45" font-family="Arial" font-size="14.00" fill="#cfffac">src/stories/Atoms/divider&#45;line.css</text>
</g>
<!-- src/stories/Atoms/DividerLine.js&#45;&gt;src/stories/Atoms/divider&#45;line.css -->
<g id="edge18" class="edge">
<title>src/stories/Atoms/DividerLine.js&#45;&gt;src/stories/Atoms/divider&#45;line.css</title>
<path fill="none" stroke="#757575" d="M538.98,-638.88C559.82,-638.88 581.91,-638.88 603.24,-638.88"/>
<polygon fill="#757575" stroke="#757575" points="603.13,-642.38 613.13,-638.88 603.13,-635.38 603.13,-642.38"/>
</g>
<!-- src/stories/Atoms/DividerLine.stories.js -->
<g id="node29" class="node">
<title>src/stories/Atoms/DividerLine.stories.js</title>
<path fill="none" stroke="#c6c5fe" d="M250.71,-650.75C250.71,-650.75 18.04,-650.75 18.04,-650.75 14.08,-650.75 10.12,-646.79 10.12,-642.83 10.12,-642.83 10.12,-634.92 10.12,-634.92 10.12,-630.96 14.08,-627 18.04,-627 18.04,-627 250.71,-627 250.71,-627 254.67,-627 258.62,-630.96 258.62,-634.92 258.62,-634.92 258.62,-642.83 258.62,-642.83 258.62,-646.79 254.67,-650.75 250.71,-650.75"/>
<text text-anchor="middle" x="134.38" y="-633.45" font-family="Arial" font-size="14.00" fill="#c6c5fe">src/stories/Atoms/DividerLine.stories.js</text>
</g>
<!-- src/stories/Atoms/DividerLine.stories.js&#45;&gt;src/stories/Atoms/DividerLine.js -->
<g id="edge19" class="edge">
<title>src/stories/Atoms/DividerLine.stories.js&#45;&gt;src/stories/Atoms/DividerLine.js</title>
<path fill="none" stroke="#757575" d="M259.03,-638.88C279.84,-638.88 301.36,-638.88 321.9,-638.88"/>
<polygon fill="#757575" stroke="#757575" points="321.68,-642.38 331.68,-638.88 321.68,-635.38 321.68,-642.38"/>
</g>
<!-- src/stories/Atoms/Icon.js -->
<g id="node30" class="node">
<title>src/stories/Atoms/Icon.js</title>
<path fill="none" stroke="#c6c5fe" d="M1064.46,-566.75C1064.46,-566.75 917.29,-566.75 917.29,-566.75 913.33,-566.75 909.38,-562.79 909.38,-558.83 909.38,-558.83 909.38,-550.92 909.38,-550.92 909.38,-546.96 913.33,-543 917.29,-543 917.29,-543 1064.46,-543 1064.46,-543 1068.42,-543 1072.38,-546.96 1072.38,-550.92 1072.38,-550.92 1072.38,-558.83 1072.38,-558.83 1072.38,-562.79 1068.42,-566.75 1064.46,-566.75"/>
<text text-anchor="middle" x="990.88" y="-549.45" font-family="Arial" font-size="14.00" fill="#c6c5fe">src/stories/Atoms/Icon.js</text>
</g>
<!-- src/stories/Atoms/icon.css -->
<g id="node31" class="node">
<title>src/stories/Atoms/icon.css</title>
<path fill="none" stroke="#cfffac" d="M1313.71,-587.75C1313.71,-587.75 1156.79,-587.75 1156.79,-587.75 1152.83,-587.75 1148.88,-583.79 1148.88,-579.83 1148.88,-579.83 1148.88,-571.92 1148.88,-571.92 1148.88,-567.96 1152.83,-564 1156.79,-564 1156.79,-564 1313.71,-564 1313.71,-564 1317.67,-564 1321.62,-567.96 1321.62,-571.92 1321.62,-571.92 1321.62,-579.83 1321.62,-579.83 1321.62,-583.79 1317.67,-587.75 1313.71,-587.75"/>
<text text-anchor="middle" x="1235.25" y="-570.45" font-family="Arial" font-size="14.00" fill="#cfffac">src/stories/Atoms/icon.css</text>
</g>
<!-- src/stories/Atoms/Icon.js&#45;&gt;src/stories/Atoms/icon.css -->
<g id="edge20" class="edge">
<title>src/stories/Atoms/Icon.js&#45;&gt;src/stories/Atoms/icon.css</title>
<path fill="none" stroke="#757575" d="M1072.58,-561.87C1093.24,-563.66 1115.68,-565.6 1137.07,-567.46"/>
<polygon fill="#757575" stroke="#757575" points="1136.72,-570.94 1146.98,-568.31 1137.32,-563.96 1136.72,-570.94"/>
</g>
<!-- src/stories/logo.png -->
<g id="node32" class="node">
<title>src/stories/logo.png</title>
<path fill="none" stroke="#cfffac" d="M1293.83,-545.75C1293.83,-545.75 1176.67,-545.75 1176.67,-545.75 1172.71,-545.75 1168.75,-541.79 1168.75,-537.83 1168.75,-537.83 1168.75,-529.92 1168.75,-529.92 1168.75,-525.96 1172.71,-522 1176.67,-522 1176.67,-522 1293.83,-522 1293.83,-522 1297.79,-522 1301.75,-525.96 1301.75,-529.92 1301.75,-529.92 1301.75,-537.83 1301.75,-537.83 1301.75,-541.79 1297.79,-545.75 1293.83,-545.75"/>
<text text-anchor="middle" x="1235.25" y="-528.45" font-family="Arial" font-size="14.00" fill="#cfffac">src/stories/logo.png</text>
</g>
<!-- src/stories/Atoms/Icon.js&#45;&gt;src/stories/logo.png -->
<g id="edge21" class="edge">
<title>src/stories/Atoms/Icon.js&#45;&gt;src/stories/logo.png</title>
<path fill="none" stroke="#757575" d="M1072.58,-547.88C1099.81,-545.52 1130.13,-542.9 1157.08,-540.56"/>
<polygon fill="#757575" stroke="#757575" points="1157.24,-544.06 1166.9,-539.71 1156.63,-537.09 1157.24,-544.06"/>
</g>
<!-- src/stories/Atoms/Icon.stories.js -->
<g id="node33" class="node">
<title>src/stories/Atoms/Icon.stories.js</title>
<path fill="none" stroke="#c6c5fe" d="M816.71,-566.75C816.71,-566.75 626.04,-566.75 626.04,-566.75 622.08,-566.75 618.12,-562.79 618.12,-558.83 618.12,-558.83 618.12,-550.92 618.12,-550.92 618.12,-546.96 622.08,-543 626.04,-543 626.04,-543 816.71,-543 816.71,-543 820.67,-543 824.62,-546.96 824.62,-550.92 824.62,-550.92 824.62,-558.83 824.62,-558.83 824.62,-562.79 820.67,-566.75 816.71,-566.75"/>
<text text-anchor="middle" x="721.38" y="-549.45" font-family="Arial" font-size="14.00" fill="#c6c5fe">src/stories/Atoms/Icon.stories.js</text>
</g>
<!-- src/stories/Atoms/Icon.stories.js&#45;&gt;src/stories/Atoms/Icon.js -->
<g id="edge22" class="edge">
<title>src/stories/Atoms/Icon.stories.js&#45;&gt;src/stories/Atoms/Icon.js</title>
<path fill="none" stroke="#757575" d="M825.03,-554.88C848.96,-554.88 874.3,-554.88 897.74,-554.88"/>
<polygon fill="#757575" stroke="#757575" points="897.57,-558.38 907.57,-554.88 897.57,-551.38 897.57,-558.38"/>
</g>
<!-- src/stories/Atoms/Input.js -->
<g id="node34" class="node">
<title>src/stories/Atoms/Input.js</title>
<path fill="none" stroke="#c6c5fe" d="M511.96,-692.75C511.96,-692.75 360.29,-692.75 360.29,-692.75 356.33,-692.75 352.38,-688.79 352.38,-684.83 352.38,-684.83 352.38,-676.92 352.38,-676.92 352.38,-672.96 356.33,-669 360.29,-669 360.29,-669 511.96,-669 511.96,-669 515.92,-669 519.88,-672.96 519.88,-676.92 519.88,-676.92 519.88,-684.83 519.88,-684.83 519.88,-688.79 515.92,-692.75 511.96,-692.75"/>
<text text-anchor="middle" x="436.12" y="-675.45" font-family="Arial" font-size="14.00" fill="#c6c5fe">src/stories/Atoms/Input.js</text>
</g>
<!-- src/stories/Atoms/input.css -->
<g id="node35" class="node">
<title>src/stories/Atoms/input.css</title>
<path fill="none" stroke="#cfffac" d="M802.08,-692.75C802.08,-692.75 640.67,-692.75 640.67,-692.75 636.71,-692.75 632.75,-688.79 632.75,-684.83 632.75,-684.83 632.75,-676.92 632.75,-676.92 632.75,-672.96 636.71,-669 640.67,-669 640.67,-669 802.08,-669 802.08,-669 806.04,-669 810,-672.96 810,-676.92 810,-676.92 810,-684.83 810,-684.83 810,-688.79 806.04,-692.75 802.08,-692.75"/>
<text text-anchor="middle" x="721.38" y="-675.45" font-family="Arial" font-size="14.00" fill="#cfffac">src/stories/Atoms/input.css</text>
</g>
<!-- src/stories/Atoms/Input.js&#45;&gt;src/stories/Atoms/input.css -->
<g id="edge23" class="edge">
<title>src/stories/Atoms/Input.js&#45;&gt;src/stories/Atoms/input.css</title>
<path fill="none" stroke="#757575" d="M520.2,-680.88C551.74,-680.88 587.98,-680.88 620.89,-680.88"/>
<polygon fill="#757575" stroke="#757575" points="620.86,-684.38 630.86,-680.88 620.86,-677.38 620.86,-684.38"/>
</g>
<!-- src/stories/Atoms/Input.stories.js -->
<g id="node36" class="node">
<title>src/stories/Atoms/Input.stories.js</title>
<path fill="none" stroke="#c6c5fe" d="M231.96,-692.75C231.96,-692.75 36.79,-692.75 36.79,-692.75 32.83,-692.75 28.88,-688.79 28.88,-684.83 28.88,-684.83 28.88,-676.92 28.88,-676.92 28.88,-672.96 32.83,-669 36.79,-669 36.79,-669 231.96,-669 231.96,-669 235.92,-669 239.88,-672.96 239.88,-676.92 239.88,-676.92 239.88,-684.83 239.88,-684.83 239.88,-688.79 235.92,-692.75 231.96,-692.75"/>
<text text-anchor="middle" x="134.38" y="-675.45" font-family="Arial" font-size="14.00" fill="#c6c5fe">src/stories/Atoms/Input.stories.js</text>
</g>
<!-- src/stories/Atoms/Input.stories.js&#45;&gt;src/stories/Atoms/Input.js -->
<g id="edge24" class="edge">
<title>src/stories/Atoms/Input.stories.js&#45;&gt;src/stories/Atoms/Input.js</title>
<path fill="none" stroke="#757575" d="M240.21,-680.88C272.98,-680.88 308.92,-680.88 340.92,-680.88"/>
<polygon fill="#757575" stroke="#757575" points="340.54,-684.38 350.54,-680.88 340.54,-677.38 340.54,-684.38"/>
</g>
<!-- src/stories/Atoms/Links.js -->
<g id="node37" class="node">
<title>src/stories/Atoms/Links.js</title>
<path fill="none" stroke="#c6c5fe" d="M512.71,-734.75C512.71,-734.75 359.54,-734.75 359.54,-734.75 355.58,-734.75 351.62,-730.79 351.62,-726.83 351.62,-726.83 351.62,-718.92 351.62,-718.92 351.62,-714.96 355.58,-711 359.54,-711 359.54,-711 512.71,-711 512.71,-711 516.67,-711 520.62,-714.96 520.62,-718.92 520.62,-718.92 520.62,-726.83 520.62,-726.83 520.62,-730.79 516.67,-734.75 512.71,-734.75"/>
<text text-anchor="middle" x="436.12" y="-717.45" font-family="Arial" font-size="14.00" fill="#c6c5fe">src/stories/Atoms/Links.js</text>
</g>
<!-- src/stories/Atoms/links.css -->
<g id="node38" class="node">
<title>src/stories/Atoms/links.css</title>
<path fill="none" stroke="#cfffac" d="M800.96,-734.75C800.96,-734.75 641.79,-734.75 641.79,-734.75 637.83,-734.75 633.88,-730.79 633.88,-726.83 633.88,-726.83 633.88,-718.92 633.88,-718.92 633.88,-714.96 637.83,-711 641.79,-711 641.79,-711 800.96,-711 800.96,-711 804.92,-711 808.88,-714.96 808.88,-718.92 808.88,-718.92 808.88,-726.83 808.88,-726.83 808.88,-730.79 804.92,-734.75 800.96,-734.75"/>
<text text-anchor="middle" x="721.38" y="-717.45" font-family="Arial" font-size="14.00" fill="#cfffac">src/stories/Atoms/links.css</text>
</g>
<!-- src/stories/Atoms/Links.js&#45;&gt;src/stories/Atoms/links.css -->
<g id="edge25" class="edge">
<title>src/stories/Atoms/Links.js&#45;&gt;src/stories/Atoms/links.css</title>
<path fill="none" stroke="#757575" d="M520.96,-722.88C552.91,-722.88 589.6,-722.88 622.72,-722.88"/>
<polygon fill="#757575" stroke="#757575" points="622.29,-726.38 632.29,-722.88 622.29,-719.38 622.29,-726.38"/>
</g>
<!-- src/stories/Atoms/Links.stories.js -->
<g id="node39" class="node">
<title>src/stories/Atoms/Links.stories.js</title>
<path fill="none" stroke="#c6c5fe" d="M232.71,-734.75C232.71,-734.75 36.04,-734.75 36.04,-734.75 32.08,-734.75 28.12,-730.79 28.12,-726.83 28.12,-726.83 28.12,-718.92 28.12,-718.92 28.12,-714.96 32.08,-711 36.04,-711 36.04,-711 232.71,-711 232.71,-711 236.67,-711 240.62,-714.96 240.62,-718.92 240.62,-718.92 240.62,-726.83 240.62,-726.83 240.62,-730.79 236.67,-734.75 232.71,-734.75"/>
<text text-anchor="middle" x="134.38" y="-717.45" font-family="Arial" font-size="14.00" fill="#c6c5fe">src/stories/Atoms/Links.stories.js</text>
</g>
<!-- src/stories/Atoms/Links.stories.js&#45;&gt;src/stories/Atoms/Links.js -->
<g id="edge26" class="edge">
<title>src/stories/Atoms/Links.stories.js&#45;&gt;src/stories/Atoms/Links.js</title>
<path fill="none" stroke="#757575" d="M241.06,-722.88C273.33,-722.88 308.61,-722.88 340.13,-722.88"/>
<polygon fill="#757575" stroke="#757575" points="340.05,-726.38 350.05,-722.88 340.05,-719.38 340.05,-726.38"/>
</g>
<!-- src/stories/Atoms/List.js -->
<g id="node40" class="node">
<title>src/stories/Atoms/List.js</title>
<path fill="none" stroke="#c6c5fe" d="M507.46,-776.75C507.46,-776.75 364.79,-776.75 364.79,-776.75 360.83,-776.75 356.88,-772.79 356.88,-768.83 356.88,-768.83 356.88,-760.92 356.88,-760.92 356.88,-756.96 360.83,-753 364.79,-753 364.79,-753 507.46,-753 507.46,-753 511.42,-753 515.38,-756.96 515.38,-760.92 515.38,-760.92 515.38,-768.83 515.38,-768.83 515.38,-772.79 511.42,-776.75 507.46,-776.75"/>
<text text-anchor="middle" x="436.12" y="-759.45" font-family="Arial" font-size="14.00" fill="#c6c5fe">src/stories/Atoms/List.js</text>
</g>
<!-- src/stories/Atoms/list.css -->
<g id="node41" class="node">
<title>src/stories/Atoms/list.css</title>
<path fill="none" stroke="#cfffac" d="M795.71,-776.75C795.71,-776.75 647.04,-776.75 647.04,-776.75 643.08,-776.75 639.12,-772.79 639.12,-768.83 639.12,-768.83 639.12,-760.92 639.12,-760.92 639.12,-756.96 643.08,-753 647.04,-753 647.04,-753 795.71,-753 795.71,-753 799.67,-753 803.62,-756.96 803.62,-760.92 803.62,-760.92 803.62,-768.83 803.62,-768.83 803.62,-772.79 799.67,-776.75 795.71,-776.75"/>
<text text-anchor="middle" x="721.38" y="-759.45" font-family="Arial" font-size="14.00" fill="#cfffac">src/stories/Atoms/list.css</text>
</g>
<!-- src/stories/Atoms/List.js&#45;&gt;src/stories/Atoms/list.css -->
<g id="edge27" class="edge">
<title>src/stories/Atoms/List.js&#45;&gt;src/stories/Atoms/list.css</title>
<path fill="none" stroke="#757575" d="M515.65,-764.88C550.37,-764.88 591.45,-764.88 627.66,-764.88"/>
<polygon fill="#757575" stroke="#757575" points="627.22,-768.38 637.22,-764.88 627.22,-761.38 627.22,-768.38"/>
</g>
<!-- src/stories/Atoms/List.stories.js -->
<g id="node42" class="node">
<title>src/stories/Atoms/List.stories.js</title>
<path fill="none" stroke="#c6c5fe" d="M227.46,-776.75C227.46,-776.75 41.29,-776.75 41.29,-776.75 37.33,-776.75 33.38,-772.79 33.38,-768.83 33.38,-768.83 33.38,-760.92 33.38,-760.92 33.38,-756.96 37.33,-753 41.29,-753 41.29,-753 227.46,-753 227.46,-753 231.42,-753 235.38,-756.96 235.38,-760.92 235.38,-760.92 235.38,-768.83 235.38,-768.83 235.38,-772.79 231.42,-776.75 227.46,-776.75"/>
<text text-anchor="middle" x="134.38" y="-759.45" font-family="Arial" font-size="14.00" fill="#c6c5fe">src/stories/Atoms/List.stories.js</text>
</g>
<!-- src/stories/Atoms/List.stories.js&#45;&gt;src/stories/Atoms/List.js -->
<g id="edge28" class="edge">
<title>src/stories/Atoms/List.stories.js&#45;&gt;src/stories/Atoms/List.js</title>
<path fill="none" stroke="#757575" d="M235.6,-764.88C271.08,-764.88 310.74,-764.88 345.29,-764.88"/>
<polygon fill="#757575" stroke="#757575" points="345.29,-768.38 355.29,-764.88 345.29,-761.38 345.29,-768.38"/>
</g>
<!-- src/stories/Atoms/Loader.js -->
<g id="node43" class="node">
<title>src/stories/Atoms/Loader.js</title>
<path fill="none" stroke="#c6c5fe" d="M517.58,-860.75C517.58,-860.75 354.67,-860.75 354.67,-860.75 350.71,-860.75 346.75,-856.79 346.75,-852.83 346.75,-852.83 346.75,-844.92 346.75,-844.92 346.75,-840.96 350.71,-837 354.67,-837 354.67,-837 517.58,-837 517.58,-837 521.54,-837 525.5,-840.96 525.5,-844.92 525.5,-844.92 525.5,-852.83 525.5,-852.83 525.5,-856.79 521.54,-860.75 517.58,-860.75"/>
<text text-anchor="middle" x="436.12" y="-843.45" font-family="Arial" font-size="14.00" fill="#c6c5fe">src/stories/Atoms/Loader.js</text>
</g>
<!-- src/stories/Atoms/loader.css -->
<g id="node44" class="node">
<title>src/stories/Atoms/loader.css</title>
<path fill="none" stroke="#cfffac" d="M805.83,-839.75C805.83,-839.75 636.92,-839.75 636.92,-839.75 632.96,-839.75 629,-835.79 629,-831.83 629,-831.83 629,-823.92 629,-823.92 629,-819.96 632.96,-816 636.92,-816 636.92,-816 805.83,-816 805.83,-816 809.79,-816 813.75,-819.96 813.75,-823.92 813.75,-823.92 813.75,-831.83 813.75,-831.83 813.75,-835.79 809.79,-839.75 805.83,-839.75"/>
<text text-anchor="middle" x="721.38" y="-822.45" font-family="Arial" font-size="14.00" fill="#cfffac">src/stories/Atoms/loader.css</text>
</g>
<!-- src/stories/Atoms/Loader.js&#45;&gt;src/stories/Atoms/loader.css -->
<g id="edge29" class="edge">
<title>src/stories/Atoms/Loader.js&#45;&gt;src/stories/Atoms/loader.css</title>
<path fill="none" stroke="#757575" d="M525.97,-842.29C555.03,-840.13 587.55,-837.72 617.55,-835.5"/>
<polygon fill="#757575" stroke="#757575" points="617.69,-839 627.41,-834.77 617.18,-832.02 617.69,-839"/>
</g>
<!-- src/stories/Atoms/Loader.stories.js -->
<g id="node45" class="node">
<title>src/stories/Atoms/Loader.stories.js</title>
<path fill="none" stroke="#c6c5fe" d="M237.58,-839.75C237.58,-839.75 31.17,-839.75 31.17,-839.75 27.21,-839.75 23.25,-835.79 23.25,-831.83 23.25,-831.83 23.25,-823.92 23.25,-823.92 23.25,-819.96 27.21,-816 31.17,-816 31.17,-816 237.58,-816 237.58,-816 241.54,-816 245.5,-819.96 245.5,-823.92 245.5,-823.92 245.5,-831.83 245.5,-831.83 245.5,-835.79 241.54,-839.75 237.58,-839.75"/>
<text text-anchor="middle" x="134.38" y="-822.45" font-family="Arial" font-size="14.00" fill="#c6c5fe">src/stories/Atoms/Loader.stories.js</text>
</g>
<!-- src/stories/Atoms/Loader.stories.js&#45;&gt;src/stories/Atoms/Loader.js -->
<g id="edge30" class="edge">
<title>src/stories/Atoms/Loader.stories.js&#45;&gt;src/stories/Atoms/Loader.js</title>
<path fill="none" stroke="#757575" d="M245.71,-835.61C275.04,-837.66 306.54,-839.87 335.27,-841.88"/>
<polygon fill="#757575" stroke="#757575" points="334.83,-845.36 345.05,-842.56 335.32,-838.37 334.83,-845.36"/>
</g>
<!-- src/stories/Atoms/LoaderShadowDom.js -->
<g id="node46" class="node">
<title>src/stories/Atoms/LoaderShadowDom.js</title>
<path fill="none" stroke="#c6c5fe" d="M556.96,-818.75C556.96,-818.75 315.29,-818.75 315.29,-818.75 311.33,-818.75 307.38,-814.79 307.38,-810.83 307.38,-810.83 307.38,-802.92 307.38,-802.92 307.38,-798.96 311.33,-795 315.29,-795 315.29,-795 556.96,-795 556.96,-795 560.92,-795 564.88,-798.96 564.88,-802.92 564.88,-802.92 564.88,-810.83 564.88,-810.83 564.88,-814.79 560.92,-818.75 556.96,-818.75"/>
<text text-anchor="middle" x="436.12" y="-801.45" font-family="Arial" font-size="14.00" fill="#c6c5fe">src/stories/Atoms/LoaderShadowDom.js</text>
</g>
<!-- src/stories/Atoms/Loader.stories.js&#45;&gt;src/stories/Atoms/LoaderShadowDom.js -->
<g id="edge31" class="edge">
<title>src/stories/Atoms/Loader.stories.js&#45;&gt;src/stories/Atoms/LoaderShadowDom.js</title>
<path fill="none" stroke="#757575" d="M245.71,-820.14C262.08,-819 279.12,-817.8 295.98,-816.62"/>
<polygon fill="#757575" stroke="#757575" points="295.78,-820.15 305.51,-815.96 295.29,-813.16 295.78,-820.15"/>
</g>
<!-- src/stories/Atoms/LoaderShadowDom.js&#45;&gt;src/stories/Atoms/loader.css -->
<g id="edge32" class="edge">
<title>src/stories/Atoms/LoaderShadowDom.js&#45;&gt;src/stories/Atoms/loader.css</title>
<path fill="none" stroke="#757575" d="M565.08,-816.36C582.64,-817.66 600.48,-818.99 617.51,-820.25"/>
<polygon fill="#757575" stroke="#757575" points="616.83,-823.71 627.06,-820.96 617.35,-816.73 616.83,-823.71"/>
</g>
<!-- src/stories/Atoms/NotificationDot.js -->
<g id="node47" class="node">
<title>src/stories/Atoms/NotificationDot.js</title>
<path fill="none" stroke="#c6c5fe" d="M540.83,-902.75C540.83,-902.75 331.42,-902.75 331.42,-902.75 327.46,-902.75 323.5,-898.79 323.5,-894.83 323.5,-894.83 323.5,-886.92 323.5,-886.92 323.5,-882.96 327.46,-879 331.42,-879 331.42,-879 540.83,-879 540.83,-879 544.79,-879 548.75,-882.96 548.75,-886.92 548.75,-886.92 548.75,-894.83 548.75,-894.83 548.75,-898.79 544.79,-902.75 540.83,-902.75"/>
<text text-anchor="middle" x="436.12" y="-885.45" font-family="Arial" font-size="14.00" fill="#c6c5fe">src/stories/Atoms/NotificationDot.js</text>
</g>
<!-- src/stories/Atoms/notification&#45;dot.css -->
<g id="node48" class="node">
<title>src/stories/Atoms/notification&#45;dot.css</title>
<path fill="none" stroke="#cfffac" d="M831.33,-902.75C831.33,-902.75 611.42,-902.75 611.42,-902.75 607.46,-902.75 603.5,-898.79 603.5,-894.83 603.5,-894.83 603.5,-886.92 603.5,-886.92 603.5,-882.96 607.46,-879 611.42,-879 611.42,-879 831.33,-879 831.33,-879 835.29,-879 839.25,-882.96 839.25,-886.92 839.25,-886.92 839.25,-894.83 839.25,-894.83 839.25,-898.79 835.29,-902.75 831.33,-902.75"/>
<text text-anchor="middle" x="721.38" y="-885.45" font-family="Arial" font-size="14.00" fill="#cfffac">src/stories/Atoms/notification&#45;dot.css</text>
</g>
<!-- src/stories/Atoms/NotificationDot.js&#45;&gt;src/stories/Atoms/notification&#45;dot.css -->
<g id="edge33" class="edge">
<title>src/stories/Atoms/NotificationDot.js&#45;&gt;src/stories/Atoms/notification&#45;dot.css</title>
<path fill="none" stroke="#757575" d="M549.07,-890.88C563.1,-890.88 577.54,-890.88 591.8,-890.88"/>
<polygon fill="#757575" stroke="#757575" points="591.68,-894.38 601.68,-890.88 591.68,-887.38 591.68,-894.38"/>
</g>
<!-- src/stories/Atoms/NotificationDot.stories.js -->
<g id="node49" class="node">
<title>src/stories/Atoms/NotificationDot.stories.js</title>
<path fill="none" stroke="#c6c5fe" d="M260.83,-902.75C260.83,-902.75 7.92,-902.75 7.92,-902.75 3.96,-902.75 0,-898.79 0,-894.83 0,-894.83 0,-886.92 0,-886.92 0,-882.96 3.96,-879 7.92,-879 7.92,-879 260.83,-879 260.83,-879 264.79,-879 268.75,-882.96 268.75,-886.92 268.75,-886.92 268.75,-894.83 268.75,-894.83 268.75,-898.79 264.79,-902.75 260.83,-902.75"/>
<text text-anchor="middle" x="134.38" y="-885.45" font-family="Arial" font-size="14.00" fill="#c6c5fe">src/stories/Atoms/NotificationDot.stories.js</text>
</g>
<!-- src/stories/Atoms/NotificationDot.stories.js&#45;&gt;src/stories/Atoms/NotificationDot.js -->
<g id="edge34" class="edge">
<title>src/stories/Atoms/NotificationDot.stories.js&#45;&gt;src/stories/Atoms/NotificationDot.js</title>
<path fill="none" stroke="#757575" d="M269.03,-890.88C283.32,-890.88 297.81,-890.88 311.97,-890.88"/>
<polygon fill="#757575" stroke="#757575" points="311.73,-894.38 321.73,-890.88 311.73,-887.38 311.73,-894.38"/>
</g>
<!-- src/stories/Atoms/ProgressBar.js -->
<g id="node50" class="node">
<title>src/stories/Atoms/ProgressBar.js</title>
<path fill="none" stroke="#c6c5fe" d="M534.08,-944.75C534.08,-944.75 338.17,-944.75 338.17,-944.75 334.21,-944.75 330.25,-940.79 330.25,-936.83 330.25,-936.83 330.25,-928.92 330.25,-928.92 330.25,-924.96 334.21,-921 338.17,-921 338.17,-921 534.08,-921 534.08,-921 538.04,-921 542,-924.96 542,-928.92 542,-928.92 542,-936.83 542,-936.83 542,-940.79 538.04,-944.75 534.08,-944.75"/>
<text text-anchor="middle" x="436.12" y="-927.45" font-family="Arial" font-size="14.00" fill="#c6c5fe">src/stories/Atoms/ProgressBar.js</text>
</g>
<!-- src/stories/Atoms/progressBar.css -->
<g id="node51" class="node">
<title>src/stories/Atoms/progressBar.css</title>
<path fill="none" stroke="#cfffac" d="M823.83,-944.75C823.83,-944.75 618.92,-944.75 618.92,-944.75 614.96,-944.75 611,-940.79 611,-936.83 611,-936.83 611,-928.92 611,-928.92 611,-924.96 614.96,-921 618.92,-921 618.92,-921 823.83,-921 823.83,-921 827.79,-921 831.75,-924.96 831.75,-928.92 831.75,-928.92 831.75,-936.83 831.75,-936.83 831.75,-940.79 827.79,-944.75 823.83,-944.75"/>
<text text-anchor="middle" x="721.38" y="-927.45" font-family="Arial" font-size="14.00" fill="#cfffac">src/stories/Atoms/progressBar.css</text>
</g>
<!-- src/stories/Atoms/ProgressBar.js&#45;&gt;src/stories/Atoms/progressBar.css -->
<g id="edge35" class="edge">
<title>src/stories/Atoms/ProgressBar.js&#45;&gt;src/stories/Atoms/progressBar.css</title>
<path fill="none" stroke="#757575" d="M542.19,-932.88C560.8,-932.88 580.3,-932.88 599.3,-932.88"/>
<polygon fill="#757575" stroke="#757575" points="599.22,-936.38 609.22,-932.88 599.22,-929.38 599.22,-936.38"/>
</g>
<!-- src/stories/Atoms/ProgressBar.stories.js -->
<g id="node52" class="node">
<title>src/stories/Atoms/ProgressBar.stories.js</title>
<path fill="none" stroke="#c6c5fe" d="M254.08,-944.75C254.08,-944.75 14.67,-944.75 14.67,-944.75 10.71,-944.75 6.75,-940.79 6.75,-936.83 6.75,-936.83 6.75,-928.92 6.75,-928.92 6.75,-924.96 10.71,-921 14.67,-921 14.67,-921 254.08,-921 254.08,-921 258.04,-921 262,-924.96 262,-928.92 262,-928.92 262,-936.83 262,-936.83 262,-940.79 258.04,-944.75 254.08,-944.75"/>
<text text-anchor="middle" x="134.38" y="-927.45" font-family="Arial" font-size="14.00" fill="#c6c5fe">src/stories/Atoms/ProgressBar.stories.js</text>
</g>
<!-- src/stories/Atoms/ProgressBar.stories.js&#45;&gt;src/stories/Atoms/ProgressBar.js -->
<g id="edge36" class="edge">
<title>src/stories/Atoms/ProgressBar.stories.js&#45;&gt;src/stories/Atoms/ProgressBar.js</title>
<path fill="none" stroke="#757575" d="M262.5,-932.88C281.13,-932.88 300.24,-932.88 318.64,-932.88"/>
<polygon fill="#757575" stroke="#757575" points="318.49,-936.38 328.49,-932.88 318.49,-929.38 318.49,-936.38"/>
</g>
<!-- src/stories/Atoms/Radio.js -->
<g id="node53" class="node">
<title>src/stories/Atoms/Radio.js</title>
<path fill="none" stroke="#c6c5fe" d="M514.58,-986.75C514.58,-986.75 357.67,-986.75 357.67,-986.75 353.71,-986.75 349.75,-982.79 349.75,-978.83 349.75,-978.83 349.75,-970.92 349.75,-970.92 349.75,-966.96 353.71,-963 357.67,-963 357.67,-963 514.58,-963 514.58,-963 518.54,-963 522.5,-966.96 522.5,-970.92 522.5,-970.92 522.5,-978.83 522.5,-978.83 522.5,-982.79 518.54,-986.75 514.58,-986.75"/>
<text text-anchor="middle" x="436.12" y="-969.45" font-family="Arial" font-size="14.00" fill="#c6c5fe">src/stories/Atoms/Radio.js</text>
</g>
<!-- src/stories/Atoms/radio.css -->
<g id="node54" class="node">
<title>src/stories/Atoms/radio.css</title>
<path fill="none" stroke="#cfffac" d="M802.46,-986.75C802.46,-986.75 640.29,-986.75 640.29,-986.75 636.33,-986.75 632.38,-982.79 632.38,-978.83 632.38,-978.83 632.38,-970.92 632.38,-970.92 632.38,-966.96 636.33,-963 640.29,-963 640.29,-963 802.46,-963 802.46,-963 806.42,-963 810.38,-966.96 810.38,-970.92 810.38,-970.92 810.38,-978.83 810.38,-978.83 810.38,-982.79 806.42,-986.75 802.46,-986.75"/>
<text text-anchor="middle" x="721.38" y="-969.45" font-family="Arial" font-size="14.00" fill="#cfffac">src/stories/Atoms/radio.css</text>
</g>
<!-- src/stories/Atoms/Radio.js&#45;&gt;src/stories/Atoms/radio.css -->
<g id="edge37" class="edge">
<title>src/stories/Atoms/Radio.js&#45;&gt;src/stories/Atoms/radio.css</title>
<path fill="none" stroke="#757575" d="M522.88,-974.88C553.76,-974.88 588.86,-974.88 620.81,-974.88"/>
<polygon fill="#757575" stroke="#757575" points="620.46,-978.38 630.46,-974.88 620.46,-971.38 620.46,-978.38"/>
</g>
<!-- src/stories/Atoms/Radio.stories.js -->
<g id="node55" class="node">
<title>src/stories/Atoms/Radio.stories.js</title>
<path fill="none" stroke="#c6c5fe" d="M234.58,-986.75C234.58,-986.75 34.17,-986.75 34.17,-986.75 30.21,-986.75 26.25,-982.79 26.25,-978.83 26.25,-978.83 26.25,-970.92 26.25,-970.92 26.25,-966.96 30.21,-963 34.17,-963 34.17,-963 234.58,-963 234.58,-963 238.54,-963 242.5,-966.96 242.5,-970.92 242.5,-970.92 242.5,-978.83 242.5,-978.83 242.5,-982.79 238.54,-986.75 234.58,-986.75"/>
<text text-anchor="middle" x="134.38" y="-969.45" font-family="Arial" font-size="14.00" fill="#c6c5fe">src/stories/Atoms/Radio.stories.js</text>
</g>
<!-- src/stories/Atoms/Radio.stories.js&#45;&gt;src/stories/Atoms/Radio.js -->
<g id="edge38" class="edge">
<title>src/stories/Atoms/Radio.stories.js&#45;&gt;src/stories/Atoms/Radio.js</title>
<path fill="none" stroke="#757575" d="M242.74,-974.88C273.88,-974.88 307.68,-974.88 338.13,-974.88"/>
<polygon fill="#757575" stroke="#757575" points="338.12,-978.38 348.12,-974.88 338.12,-971.38 338.12,-978.38"/>
</g>
<!-- src/stories/Atoms/Tooltip.js -->
<g id="node56" class="node">
<title>src/stories/Atoms/Tooltip.js</title>
<path fill="none" stroke="#c6c5fe" d="M516.46,-1028.75C516.46,-1028.75 355.79,-1028.75 355.79,-1028.75 351.83,-1028.75 347.88,-1024.79 347.88,-1020.83 347.88,-1020.83 347.88,-1012.92 347.88,-1012.92 347.88,-1008.96 351.83,-1005 355.79,-1005 355.79,-1005 516.46,-1005 516.46,-1005 520.42,-1005 524.38,-1008.96 524.38,-1012.92 524.38,-1012.92 524.38,-1020.83 524.38,-1020.83 524.38,-1024.79 520.42,-1028.75 516.46,-1028.75"/>
<text text-anchor="middle" x="436.12" y="-1011.45" font-family="Arial" font-size="14.00" fill="#c6c5fe">src/stories/Atoms/Tooltip.js</text>
</g>
<!-- src/stories/Atoms/tooltip.css -->
<g id="node57" class="node">
<title>src/stories/Atoms/tooltip.css</title>
<path fill="none" stroke="#cfffac" d="M805.46,-1028.75C805.46,-1028.75 637.29,-1028.75 637.29,-1028.75 633.33,-1028.75 629.38,-1024.79 629.38,-1020.83 629.38,-1020.83 629.38,-1012.92 629.38,-1012.92 629.38,-1008.96 633.33,-1005 637.29,-1005 637.29,-1005 805.46,-1005 805.46,-1005 809.42,-1005 813.38,-1008.96 813.38,-1012.92 813.38,-1012.92 813.38,-1020.83 813.38,-1020.83 813.38,-1024.79 809.42,-1028.75 805.46,-1028.75"/>
<text text-anchor="middle" x="721.38" y="-1011.45" font-family="Arial" font-size="14.00" fill="#cfffac">src/stories/Atoms/tooltip.css</text>
</g>
<!-- src/stories/Atoms/Tooltip.js&#45;&gt;src/stories/Atoms/tooltip.css -->
<g id="edge39" class="edge">
<title>src/stories/Atoms/Tooltip.js&#45;&gt;src/stories/Atoms/tooltip.css</title>
<path fill="none" stroke="#757575" d="M524.81,-1016.88C554.33,-1016.88 587.52,-1016.88 618.07,-1016.88"/>
<polygon fill="#757575" stroke="#757575" points="617.68,-1020.38 627.68,-1016.88 617.68,-1013.38 617.68,-1020.38"/>
</g>
<!-- src/stories/Atoms/Tooltip.stories.js -->
<g id="node58" class="node">
<title>src/stories/Atoms/Tooltip.stories.js</title>
<path fill="none" stroke="#c6c5fe" d="M236.46,-1028.75C236.46,-1028.75 32.29,-1028.75 32.29,-1028.75 28.33,-1028.75 24.38,-1024.79 24.38,-1020.83 24.38,-1020.83 24.38,-1012.92 24.38,-1012.92 24.38,-1008.96 28.33,-1005 32.29,-1005 32.29,-1005 236.46,-1005 236.46,-1005 240.42,-1005 244.38,-1008.96 244.38,-1012.92 244.38,-1012.92 244.38,-1020.83 244.38,-1020.83 244.38,-1024.79 240.42,-1028.75 236.46,-1028.75"/>
<text text-anchor="middle" x="134.38" y="-1011.45" font-family="Arial" font-size="14.00" fill="#c6c5fe">src/stories/Atoms/Tooltip.stories.js</text>
</g>
<!-- src/stories/Atoms/Tooltip.stories.js&#45;&gt;src/stories/Atoms/Tooltip.js -->
<g id="edge40" class="edge">
<title>src/stories/Atoms/Tooltip.stories.js&#45;&gt;src/stories/Atoms/Tooltip.js</title>
<path fill="none" stroke="#757575" d="M244.86,-1016.88C274.69,-1016.88 306.82,-1016.88 336.03,-1016.88"/>
<polygon fill="#757575" stroke="#757575" points="335.98,-1020.38 345.98,-1016.88 335.98,-1013.38 335.98,-1020.38"/>
</g>
<!-- src/stories/Atoms/Typography.js -->
<g id="node59" class="node">
<title>src/stories/Atoms/Typography.js</title>
<path fill="none" stroke="#c6c5fe" d="M817.08,-359.75C817.08,-359.75 625.67,-359.75 625.67,-359.75 621.71,-359.75 617.75,-355.79 617.75,-351.83 617.75,-351.83 617.75,-343.92 617.75,-343.92 617.75,-339.96 621.71,-336 625.67,-336 625.67,-336 817.08,-336 817.08,-336 821.04,-336 825,-339.96 825,-343.92 825,-343.92 825,-351.83 825,-351.83 825,-355.79 821.04,-359.75 817.08,-359.75"/>
<text text-anchor="middle" x="721.38" y="-342.45" font-family="Arial" font-size="14.00" fill="#c6c5fe">src/stories/Atoms/Typography.js</text>
</g>
<!-- src/stories/Atoms/typography.css -->
<g id="node60" class="node">
<title>src/stories/Atoms/typography.css</title>
<path fill="none" stroke="#cfffac" d="M1089.96,-359.75C1089.96,-359.75 891.79,-359.75 891.79,-359.75 887.83,-359.75 883.88,-355.79 883.88,-351.83 883.88,-351.83 883.88,-343.92 883.88,-343.92 883.88,-339.96 887.83,-336 891.79,-336 891.79,-336 1089.96,-336 1089.96,-336 1093.92,-336 1097.88,-339.96 1097.88,-343.92 1097.88,-343.92 1097.88,-351.83 1097.88,-351.83 1097.88,-355.79 1093.92,-359.75 1089.96,-359.75"/>
<text text-anchor="middle" x="990.88" y="-342.45" font-family="Arial" font-size="14.00" fill="#cfffac">src/stories/Atoms/typography.css</text>
</g>
<!-- src/stories/Atoms/Typography.js&#45;&gt;src/stories/Atoms/typography.css -->
<g id="edge41" class="edge">
<title>src/stories/Atoms/Typography.js&#45;&gt;src/stories/Atoms/typography.css</title>
<path fill="none" stroke="#757575" d="M825.41,-347.88C840.81,-347.88 856.78,-347.88 872.45,-347.88"/>
<polygon fill="#757575" stroke="#757575" points="872.28,-351.38 882.28,-347.88 872.28,-344.38 872.28,-351.38"/>
</g>
<!-- src/stories/Atoms/Typography.stories.js -->
<g id="node61" class="node">
<title>src/stories/Atoms/Typography.stories.js</title>
<path fill="none" stroke="#c6c5fe" d="M553.58,-359.75C553.58,-359.75 318.67,-359.75 318.67,-359.75 314.71,-359.75 310.75,-355.79 310.75,-351.83 310.75,-351.83 310.75,-343.92 310.75,-343.92 310.75,-339.96 314.71,-336 318.67,-336 318.67,-336 553.58,-336 553.58,-336 557.54,-336 561.5,-339.96 561.5,-343.92 561.5,-343.92 561.5,-351.83 561.5,-351.83 561.5,-355.79 557.54,-359.75 553.58,-359.75"/>
<text text-anchor="middle" x="436.12" y="-342.45" font-family="Arial" font-size="14.00" fill="#c6c5fe">src/stories/Atoms/Typography.stories.js</text>
</g>
<!-- src/stories/Atoms/Typography.stories.js&#45;&gt;src/stories/Atoms/Typography.js -->
<g id="edge42" class="edge">
<title>src/stories/Atoms/Typography.stories.js&#45;&gt;src/stories/Atoms/Typography.js</title>
<path fill="none" stroke="#757575" d="M561.77,-347.88C576.56,-347.88 591.59,-347.88 606.22,-347.88"/>
<polygon fill="#757575" stroke="#757575" points="605.8,-351.38 615.8,-347.88 605.8,-344.38 605.8,-351.38"/>
</g>
<!-- src/stories/Components/Header.jsx -->
<g id="node62" class="node">
<title>src/stories/Components/Header.jsx</title>
<path fill="none" stroke="#c6c5fe" d="M826.46,-524.75C826.46,-524.75 616.29,-524.75 616.29,-524.75 612.33,-524.75 608.38,-520.79 608.38,-516.83 608.38,-516.83 608.38,-508.92 608.38,-508.92 608.38,-504.96 612.33,-501 616.29,-501 616.29,-501 826.46,-501 826.46,-501 830.42,-501 834.38,-504.96 834.38,-508.92 834.38,-508.92 834.38,-516.83 834.38,-516.83 834.38,-520.79 830.42,-524.75 826.46,-524.75"/>
<text text-anchor="middle" x="721.38" y="-507.45" font-family="Arial" font-size="14.00" fill="#c6c5fe">src/stories/Components/Header.jsx</text>
</g>
<!-- src/stories/Components/Header.jsx&#45;&gt;src/stories/Atoms/Button.jsx -->
<g id="edge43" class="edge">
<title>src/stories/Components/Header.jsx&#45;&gt;src/stories/Atoms/Button.jsx</title>
<path fill="none" stroke="#757575" d="M801.19,-500.5C832.21,-495.63 867.99,-490.01 900.01,-484.98"/>
<polygon fill="#757575" stroke="#757575" points="900.33,-488.48 909.67,-483.47 899.25,-481.56 900.33,-488.48"/>
</g>
<!-- src/stories/Components/Header.jsx&#45;&gt;src/stories/Atoms/Icon.js -->
<g id="edge44" class="edge">
<title>src/stories/Components/Header.jsx&#45;&gt;src/stories/Atoms/Icon.js</title>
<path fill="none" stroke="#757575" d="M801.19,-525.25C832.21,-530.12 867.99,-535.74 900.01,-540.77"/>
<polygon fill="#757575" stroke="#757575" points="899.25,-544.19 909.67,-542.28 900.33,-537.27 899.25,-544.19"/>
</g>
<!-- src/stories/Components/header.css -->
<g id="node63" class="node">
<title>src/stories/Components/header.css</title>
<path fill="none" stroke="#cfffac" d="M1096.71,-524.75C1096.71,-524.75 885.04,-524.75 885.04,-524.75 881.08,-524.75 877.12,-520.79 877.12,-516.83 877.12,-516.83 877.12,-508.92 877.12,-508.92 877.12,-504.96 881.08,-501 885.04,-501 885.04,-501 1096.71,-501 1096.71,-501 1100.67,-501 1104.62,-504.96 1104.62,-508.92 1104.62,-508.92 1104.62,-516.83 1104.62,-516.83 1104.62,-520.79 1100.67,-524.75 1096.71,-524.75"/>
<text text-anchor="middle" x="990.88" y="-507.45" font-family="Arial" font-size="14.00" fill="#cfffac">src/stories/Components/header.css</text>
</g>
<!-- src/stories/Components/Header.jsx&#45;&gt;src/stories/Components/header.css -->
<g id="edge45" class="edge">
<title>src/stories/Components/Header.jsx&#45;&gt;src/stories/Components/header.css</title>
<path fill="none" stroke="#757575" d="M834.66,-512.88C844.95,-512.88 855.41,-512.88 865.8,-512.88"/>
<polygon fill="#757575" stroke="#757575" points="865.51,-516.38 875.51,-512.88 865.51,-509.38 865.51,-516.38"/>
</g>
<!-- src/stories/Components/Header.stories.js -->
<g id="node64" class="node">
<title>src/stories/Components/Header.stories.js</title>
<path fill="none" stroke="#c6c5fe" d="M559.58,-524.75C559.58,-524.75 312.67,-524.75 312.67,-524.75 308.71,-524.75 304.75,-520.79 304.75,-516.83 304.75,-516.83 304.75,-508.92 304.75,-508.92 304.75,-504.96 308.71,-501 312.67,-501 312.67,-501 559.58,-501 559.58,-501 563.54,-501 567.5,-504.96 567.5,-508.92 567.5,-508.92 567.5,-516.83 567.5,-516.83 567.5,-520.79 563.54,-524.75 559.58,-524.75"/>
<text text-anchor="middle" x="436.12" y="-507.45" font-family="Arial" font-size="14.00" fill="#c6c5fe">src/stories/Components/Header.stories.js</text>
</g>
<!-- src/stories/Components/Header.stories.js&#45;&gt;src/stories/Components/Header.jsx -->
<g id="edge46" class="edge">
<title>src/stories/Components/Header.stories.js&#45;&gt;src/stories/Components/Header.jsx</title>
<path fill="none" stroke="#757575" d="M567.97,-512.88C577.45,-512.88 587,-512.88 596.44,-512.88"/>
<polygon fill="#757575" stroke="#757575" points="596.37,-516.38 606.37,-512.88 596.37,-509.38 596.37,-516.38"/>
</g>
<!-- src/stories/Pages/Page.jsx -->
<g id="node65" class="node">
<title>src/stories/Pages/Page.jsx</title>
<path fill="none" stroke="#c6c5fe" d="M515.71,-442.75C515.71,-442.75 356.54,-442.75 356.54,-442.75 352.58,-442.75 348.62,-438.79 348.62,-434.83 348.62,-434.83 348.62,-426.92 348.62,-426.92 348.62,-422.96 352.58,-419 356.54,-419 356.54,-419 515.71,-419 515.71,-419 519.67,-419 523.62,-422.96 523.62,-426.92 523.62,-426.92 523.62,-434.83 523.62,-434.83 523.62,-438.79 519.67,-442.75 515.71,-442.75"/>
<text text-anchor="middle" x="436.12" y="-425.45" font-family="Arial" font-size="14.00" fill="#c6c5fe">src/stories/Pages/Page.jsx</text>
</g>
<!-- src/stories/Pages/Page.jsx&#45;&gt;src/stories/Atoms/Button.jsx -->
<g id="edge47" class="edge">
<title>src/stories/Pages/Page.jsx&#45;&gt;src/stories/Atoms/Button.jsx</title>
<path fill="none" stroke="#757575" d="M519.91,-443.23C546.54,-446.83 576.22,-450.44 603.5,-452.88 699.6,-461.45 809.54,-466.07 887.51,-468.47"/>
<polygon fill="#757575" stroke="#757575" points="887.17,-471.96 897.27,-468.77 887.38,-464.97 887.17,-471.96"/>
</g>
<!-- src/stories/Pages/Page.jsx&#45;&gt;src/stories/Atoms/Typography.js -->
<g id="edge48" class="edge">
<title>src/stories/Pages/Page.jsx&#45;&gt;src/stories/Atoms/Typography.js</title>
<path fill="none" stroke="#757575" d="M465.47,-418.53C498.18,-404.71 553.85,-382.47 603.5,-368.88 611.89,-366.58 620.69,-364.47 629.53,-362.55"/>
<polygon fill="#757575" stroke="#757575" points="630.17,-365.99 639.25,-360.52 628.75,-359.13 630.17,-365.99"/>
</g>
<!-- src/stories/Pages/Page.jsx&#45;&gt;src/stories/Components/Header.jsx -->
<g id="edge49" class="edge">
<title>src/stories/Pages/Page.jsx&#45;&gt;src/stories/Components/Header.jsx</title>
<path fill="none" stroke="#757575" d="M471.25,-443.18C504.69,-455 557.22,-472.91 603.5,-485.88 618.9,-490.19 635.57,-494.34 651.37,-498.05"/>
<polygon fill="#757575" stroke="#757575" points="650.14,-501.35 660.67,-500.19 651.72,-494.53 650.14,-501.35"/>
</g>
<!-- src/stories/Pages/page.css -->
<g id="node66" class="node">
<title>src/stories/Pages/page.css</title>
<path fill="none" stroke="#cfffac" d="M802.08,-401.75C802.08,-401.75 640.67,-401.75 640.67,-401.75 636.71,-401.75 632.75,-397.79 632.75,-393.83 632.75,-393.83 632.75,-385.92 632.75,-385.92 632.75,-381.96 636.71,-378 640.67,-378 640.67,-378 802.08,-378 802.08,-378 806.04,-378 810,-381.96 810,-385.92 810,-385.92 810,-393.83 810,-393.83 810,-397.79 806.04,-401.75 802.08,-401.75"/>
<text text-anchor="middle" x="721.38" y="-384.45" font-family="Arial" font-size="14.00" fill="#cfffac">src/stories/Pages/page.css</text>
</g>
<!-- src/stories/Pages/Page.jsx&#45;&gt;src/stories/Pages/page.css -->
<g id="edge50" class="edge">
<title>src/stories/Pages/Page.jsx&#45;&gt;src/stories/Pages/page.css</title>
<path fill="none" stroke="#757575" d="M522.49,-418.52C554.54,-413.88 591.18,-408.58 624.15,-403.8"/>
<polygon fill="#757575" stroke="#757575" points="624.29,-407.32 633.68,-402.42 623.29,-400.39 624.29,-407.32"/>
</g>
<!-- src/stories/Pages/Page.stories.js -->
<g id="node67" class="node">
<title>src/stories/Pages/Page.stories.js</title>
<path fill="none" stroke="#c6c5fe" d="M232.33,-442.75C232.33,-442.75 36.42,-442.75 36.42,-442.75 32.46,-442.75 28.5,-438.79 28.5,-434.83 28.5,-434.83 28.5,-426.92 28.5,-426.92 28.5,-422.96 32.46,-419 36.42,-419 36.42,-419 232.33,-419 232.33,-419 236.29,-419 240.25,-422.96 240.25,-426.92 240.25,-426.92 240.25,-434.83 240.25,-434.83 240.25,-438.79 236.29,-442.75 232.33,-442.75"/>
<text text-anchor="middle" x="134.38" y="-425.45" font-family="Arial" font-size="14.00" fill="#c6c5fe">src/stories/Pages/Page.stories.js</text>
</g>
<!-- src/stories/Pages/Page.stories.js&#45;&gt;src/stories/Pages/Page.jsx -->
<g id="edge51" class="edge">
<title>src/stories/Pages/Page.stories.js&#45;&gt;src/stories/Pages/Page.jsx</title>
<path fill="none" stroke="#757575" d="M240.63,-430.88C272.03,-430.88 306.31,-430.88 337.22,-430.88"/>
<polygon fill="#757575" stroke="#757575" points="336.93,-434.38 346.93,-430.88 336.93,-427.38 336.93,-434.38"/>
</g>
</g>
</svg>
