<svg width="47" height="37" viewBox="0 0 47 37" fill="none" xmlns="http://www.w3.org/2000/svg">
<path d="M0.296116 27.5681C0.296116 22.2151 3.96906 18.6018 9.41045 18.6018C10.7708 18.6018 11.8591 19.1371 12.1311 19.2709C11.8591 13.5164 6.96183 8.29721 1.52043 7.36042V0C9.54649 0.802961 21.1094 7.49425 21.1094 24.2225C21.1094 31.5829 16.4843 36.4006 10.2267 36.4006C4.5132 36.4006 0.296116 32.3859 0.296116 27.5681ZM25.4626 27.5681C25.4626 22.2151 29.2715 18.6018 34.5769 18.6018C35.9372 18.6018 37.1615 19.1371 37.4336 19.2709C37.1615 13.5164 32.2643 8.29721 26.6869 7.36042V0C34.849 0.802961 46.2759 7.49425 46.2759 24.2225C46.2759 31.5829 41.7867 36.4006 35.3931 36.4006C29.6796 36.4006 25.4626 32.3859 25.4626 27.5681Z" fill="#2D3A6F"/>
</svg>
