<svg width="46" height="37" viewBox="0 0 46 37" fill="none" xmlns="http://www.w3.org/2000/svg">
<path d="M45.9798 27.5681C45.9798 22.2151 42.3068 18.6018 36.8654 18.6018C35.5051 18.6018 34.4168 19.1371 34.1447 19.2709C34.4168 13.5164 39.3141 8.29721 44.7554 7.36042V0C36.7294 0.802961 25.1664 7.49425 25.1664 24.2225C25.1664 31.5829 29.7916 36.4006 36.0492 36.4006C41.7627 36.4006 45.9798 32.3859 45.9798 27.5681ZM20.8133 27.5681C20.8133 22.2151 17.0043 18.6018 11.699 18.6018C10.3386 18.6018 9.11433 19.1371 8.84226 19.2709C9.11433 13.5164 14.0116 8.29721 19.589 7.36042V0C11.4269 0.802961 0 7.49425 0 24.2225C0 31.5829 4.48915 36.4006 10.8828 36.4006C16.5962 36.4006 20.8133 32.3859 20.8133 27.5681Z" fill="#2D3A6F"/>
</svg>
