<svg width="100" height="100" viewBox="0 0 100 100" fill="none" xmlns="http://www.w3.org/2000/svg">
<circle cx="50" cy="50" r="50" fill="white"/>
<path d="M70.2136 40.1449V58.4382L54.5074 61.4174C54.529 61.2969 54.5378 61.1742 54.5336 61.0516H55.8402C57.3261 61.0569 58.685 60.2153 59.3421 58.8825C60.0016 57.555 59.8602 55.9697 58.9762 54.7796L50.5874 44.0388L45.204 45.8158C42.9253 46.5369 40.7208 44.5206 41.2357 42.1868C41.4352 41.2828 42.028 40.5148 42.852 40.0926L44.2109 39.4132L51.8941 35.5977C53.4461 34.8142 55.2538 34.7102 56.8856 35.3102L70.2136 40.1449Z" fill="#DFF9FF"/>
<path d="M59.3476 58.8854C58.6906 60.2182 57.3314 61.0598 55.8458 61.0544H54.5391C54.5434 61.1771 54.5346 61.2995 54.513 61.4203C54.2628 64.375 51.2324 66.251 48.4762 65.1574L48.0058 64.9744V66.6208C47.9858 69.383 44.9836 71.0878 42.6015 69.6897C42.265 69.4923 41.9631 69.2414 41.7076 68.9467L32.3204 58.4384H25.7871V42.7584L37.8346 37.9238C39.6394 37.2142 41.6818 37.4806 43.2442 38.6294L44.2111 39.4134L42.8522 40.0928C40.725 41.1824 40.5754 44.1662 42.5826 45.4635C43.3602 45.9662 44.3215 46.0955 45.2042 45.816L50.5876 44.039L58.9764 54.7798C59.8631 55.9694 60.0066 57.556 59.3476 58.8854Z" fill="#DFF9FF"/>
<path d="M57.8447 53.3216L58.9815 54.7797C59.8652 55.9699 60.0066 57.5552 59.3474 58.8827C58.6903 60.2155 57.3311 61.0571 55.8455 61.0517H54.5388C54.5431 61.1744 54.5343 61.2971 54.5127 61.4176L70.2188 58.4384V50.7632C66.1778 51.9797 62.0367 52.836 57.8447 53.3216Z" fill="#DFF9FF"/>
<path d="M57.845 53.3217C54.7508 53.6827 51.6383 53.8635 48.5231 53.8625C40.8132 53.9043 33.1436 52.7513 25.7871 50.4443V58.4385H32.3204L41.7023 68.9441C43.5124 71.0305 46.9023 70.3747 47.8039 67.7638C47.9316 67.3942 47.998 67.0065 48.0004 66.6155V64.9718L48.4708 65.1547C51.2271 66.2483 54.2575 64.3726 54.5076 61.4177C54.5292 61.2971 54.538 61.1745 54.5338 61.0518H55.8404C57.3263 61.0571 58.6852 60.2155 59.3423 58.8827C60.0018 57.5553 59.8604 55.9699 58.9764 54.7798L57.845 53.3217Z" fill="#DFF9FF"/>
<path d="M54.5389 42.7583L50.5928 44.0388" stroke="#00303E" stroke-width="2" stroke-linecap="round" stroke-linejoin="round"/>
<path d="M70.2136 40.1449V58.4382L54.5074 61.4175C54.529 61.2969 54.5378 61.1742 54.5336 61.0516H55.8402C57.3261 61.0569 58.685 60.2153 59.3421 58.8825C60.0016 57.555 59.8602 55.9697 58.9762 54.7796L50.5874 44.0388L45.204 45.8158C42.9253 46.5369 40.7208 44.5206 41.2357 42.1868C41.4352 41.2828 42.028 40.5148 42.852 40.0926L44.2109 39.4132L51.8941 35.5977C53.4461 34.8142 55.2538 34.7102 56.8856 35.3102L70.2136 40.1449Z" stroke="#00303E" stroke-width="2" stroke-linecap="round" stroke-linejoin="round"/>
<path d="M59.3476 58.8854C58.6906 60.2182 57.3314 61.0598 55.8458 61.0544H54.5391C54.5434 61.1771 54.5346 61.2995 54.513 61.4203C54.2628 64.375 51.2324 66.251 48.4762 65.1574L48.0058 64.9744V66.6208C47.9858 69.383 44.9836 71.0878 42.6015 69.6896C42.265 69.4923 41.9631 69.2414 41.7076 68.9467L32.3204 58.4384H25.7871V42.7584L37.8346 37.9238C39.6394 37.2142 41.6818 37.4806 43.2442 38.6294L44.2111 39.4134L42.8522 40.0928C40.725 41.1824 40.5754 44.1662 42.5826 45.4635C43.3602 45.9662 44.3215 46.0955 45.2042 45.816L50.5876 44.039L58.9764 54.7798C59.8631 55.9694 60.0066 57.556 59.3476 58.8854Z" stroke="#00303E" stroke-width="2" stroke-linecap="round" stroke-linejoin="round"/>
<path d="M17.9463 37.5317H23.173C24.6164 37.5317 25.7863 38.7019 25.7863 40.1451V58.4384C25.7863 59.8819 24.6162 61.0517 23.173 61.0517H17.9463" fill="#9FEAFF"/>
<path d="M17.9463 37.5317H23.173C24.6164 37.5317 25.7863 38.7019 25.7863 40.1451V58.4384C25.7863 59.8819 24.6162 61.0517 23.173 61.0517H17.9463" stroke="#00303E" stroke-width="2" stroke-linecap="round" stroke-linejoin="round"/>
<path d="M78.0529 61.0517H72.8262C71.383 61.0517 70.2129 59.8819 70.2129 58.4384V40.1451C70.2129 38.7019 71.383 37.5317 72.8262 37.5317H78.0529" fill="#9FEAFF"/>
<path d="M78.0529 61.0517H72.8262C71.383 61.0517 70.2129 59.8819 70.2129 58.4384V40.1451C70.2129 38.7019 71.383 37.5317 72.8262 37.5317H78.0529" stroke="#00303E" stroke-width="2" stroke-linecap="round" stroke-linejoin="round"/>
<path d="M48.0001 64.9717L45.3867 62.3584" stroke="#00303E" stroke-width="2" stroke-linecap="round" stroke-linejoin="round"/>
<path d="M50.6133 57.1318L54.5333 61.0518" stroke="#00303E" stroke-width="2" stroke-linecap="round" stroke-linejoin="round"/>
</svg>
