<svg width="100" height="100" viewBox="0 0 100 100" fill="none" xmlns="http://www.w3.org/2000/svg">
<circle cx="50" cy="50" r="50" fill="white"/>
<path d="M58.0001 60V56.9813C57.9997 56.7109 57.9172 56.447 57.7633 56.2245C57.6095 56.0021 57.3917 55.8317 57.1387 55.736C55.3207 55.0551 53.7722 53.8033 52.7256 52.1682C51.679 50.5331 51.1905 48.6028 51.3334 46.6667C51.3334 37.4827 61.6641 48.9573 62.0001 21.3707C62.0037 21.0125 61.8655 20.6674 61.6158 20.4107C61.366 20.1539 61.0249 20.0063 60.6667 20H36.6801C36.3219 20.0063 35.9808 20.1539 35.7311 20.4107C35.4813 20.6674 35.3432 21.0125 35.3467 21.3707C35.6747 48.9573 46.0134 37.4827 46.0134 46.6667C46.1557 48.6024 45.667 50.5321 44.6204 52.1666C43.5738 53.8012 42.0257 55.0526 40.2081 55.7333C39.9522 55.8271 39.7313 55.9969 39.5749 56.2201C39.4185 56.4432 39.3342 56.7089 39.3334 56.9813V60H58.0001Z" fill="#DFF9FF"/>
<path d="M62.0005 21.3708C61.9955 21.1095 61.9139 20.8554 61.7658 20.6401C60.6111 30.1121 55.1951 37.2881 48.6751 37.2881C42.1551 37.2881 36.7311 30.1121 35.5765 20.6401C35.4283 20.8554 35.3467 21.1095 35.3418 21.3708C35.6698 48.9575 46.0085 37.4828 46.0085 46.6668C46.1508 48.6025 45.662 50.5322 44.6154 52.1667C43.5688 53.8013 42.0207 55.0527 40.2031 55.7335C39.9483 55.8281 39.7284 55.9983 39.5731 56.2214C39.4177 56.4444 39.3342 56.7096 39.3338 56.9815V60.0001H58.0005V56.9815C58.0001 56.711 57.9176 56.4471 57.7637 56.2247C57.6099 56.0023 57.3921 55.8319 57.1391 55.7361C55.321 55.0553 53.7726 53.8034 52.726 52.1683C51.6794 50.5332 51.1909 48.6029 51.3338 46.6668C51.3338 37.4828 61.6645 48.9575 62.0005 21.3708Z" fill="#9FEAFF"/>
<path d="M58.0001 60V56.9813C57.9997 56.7109 57.9172 56.447 57.7633 56.2245C57.6095 56.0021 57.3917 55.8317 57.1387 55.736C55.3207 55.0551 53.7722 53.8033 52.7256 52.1682C51.679 50.5331 51.1905 48.6028 51.3334 46.6667C51.3334 37.4827 61.6641 48.9573 62.0001 21.3707C62.0037 21.0125 61.8655 20.6674 61.6158 20.4107C61.366 20.1539 61.0249 20.0063 60.6667 20H36.6801C36.3219 20.0063 35.9808 20.1539 35.7311 20.4107C35.4813 20.6674 35.3432 21.0125 35.3467 21.3707C35.6747 48.9573 46.0134 37.4827 46.0134 46.6667C46.1557 48.6024 45.667 50.5321 44.6204 52.1666C43.5738 53.8012 42.0257 55.0526 40.2081 55.7333C39.9522 55.8271 39.7313 55.9969 39.5749 56.2201C39.4185 56.4432 39.3342 56.7089 39.3334 56.9813V60H58.0001Z" stroke="#00303E" stroke-width="2" stroke-linecap="round" stroke-linejoin="round"/>
<path d="M35.3331 22.6665H30.0771C29.8904 22.6656 29.7056 22.7039 29.5347 22.7789C29.3638 22.854 29.2105 22.964 29.0849 23.102C28.9592 23.24 28.8639 23.4029 28.8051 23.5801C28.7463 23.7572 28.7254 23.9448 28.7437 24.1305C29.0557 27.5972 29.8504 35.9999 37.2611 35.9999" stroke="#00303E" stroke-width="2" stroke-linecap="round" stroke-linejoin="round"/>
<path d="M62.0003 22.6665H67.2563C67.4429 22.6656 67.6277 22.7039 67.7986 22.7789C67.9695 22.854 68.1228 22.964 68.2485 23.102C68.3741 23.24 68.4694 23.4029 68.5282 23.5801C68.587 23.7572 68.6079 23.9448 68.5896 24.1305C68.2776 27.5972 67.4856 35.9999 60.0723 35.9999" stroke="#00303E" stroke-width="2" stroke-linecap="round" stroke-linejoin="round"/>
<path d="M37.9997 65.3333V70.6667C37.9955 72.0799 37.4322 73.434 36.4329 74.4332C35.4336 75.4325 34.0795 75.9958 32.6663 76H19.333V60H32.6663C34.0795 60.0042 35.4336 60.5675 36.4329 61.5668C37.4322 62.566 37.9955 63.9201 37.9997 65.3333Z" fill="#DFF9FF"/>
<path d="M80.667 65.3333V70.6667C80.667 73.6 79.6003 76 76.667 76H32.667C34.0802 75.9958 35.4343 75.4325 36.4336 74.4332C37.4328 73.434 37.9961 72.0799 38.0003 70.6667V65.3333C37.9961 63.9201 37.4328 62.566 36.4336 61.5668C35.4343 60.5675 34.0802 60.0042 32.667 60H76.667C79.6003 60 80.667 62.4 80.667 65.3333Z" fill="#9FEAFF" stroke="#00303E" stroke-width="2" stroke-linecap="round" stroke-linejoin="round"/>
<path d="M19.333 76H32.6663C34.0808 76 35.4374 75.4381 36.4376 74.4379C37.4378 73.4377 37.9997 72.0812 37.9997 70.6667V65.3333C37.9997 63.9188 37.4378 62.5623 36.4376 61.5621C35.4374 60.5619 34.0808 60 32.6663 60H19.333" stroke="#00303E" stroke-width="2" stroke-linecap="round" stroke-linejoin="round"/>
<path d="M64.667 60H70.0003V76H64.667V60Z" fill="#9FEAFF" stroke="#00303E" stroke-width="2" stroke-linecap="round" stroke-linejoin="round"/>
<path d="M48.667 60H54.0003V76H48.667V60Z" fill="#9FEAFF" stroke="#00303E" stroke-width="2" stroke-linecap="round" stroke-linejoin="round"/>
<path d="M32.6667 70.6665H22" stroke="#00303E" stroke-width="2" stroke-linecap="round" stroke-linejoin="round"/>
<path d="M32.6667 65.3335H22" stroke="#00303E" stroke-width="2" stroke-linecap="round" stroke-linejoin="round"/>
</svg>
