<svg width="100" height="100" viewBox="0 0 100 100" fill="none" xmlns="http://www.w3.org/2000/svg">
<circle cx="50" cy="50" r="50" fill="white"/>
<path d="M69.333 31.1253V25.3333C69.333 22.4 67.6557 20 63.2557 20H29.333C27.2132 20.0063 25.1821 20.8512 23.6831 22.3501C22.1842 23.8491 21.3393 25.8802 21.333 28V68C21.3393 70.1198 22.1842 72.1509 23.6831 73.6499C25.1821 75.1488 27.2132 75.9937 29.333 76H66.6663C68.7861 75.9937 70.8173 75.1488 72.3162 73.6499C73.8151 72.1509 74.66 70.1198 74.6663 68V38.6667C74.6622 37.0134 74.1477 35.4018 73.1931 34.052C72.2385 32.7022 70.8904 31.6801 69.333 31.1253Z" fill="#DFF9FF"/>
<path d="M66.6663 68H29.333C27.2132 67.9937 25.1821 67.1488 23.6831 65.6499C22.1842 64.1509 21.3393 62.1198 21.333 60V68C21.3393 70.1198 22.1842 72.1509 23.6831 73.6499C25.1821 75.1488 27.2132 75.9937 29.333 76H66.6663C68.7861 75.9937 70.8173 75.1488 72.3162 73.6499C73.8151 72.1509 74.66 70.1198 74.6663 68V60C74.66 62.1198 73.8151 64.1509 72.3162 65.6499C70.8173 67.1488 68.7861 67.9937 66.6663 68Z" fill="#9FEAFF"/>
<path d="M63.2582 20H29.3329C27.6805 20.0052 26.0701 20.5202 24.7213 21.4748C23.3726 22.4293 22.3513 23.7768 21.7969 25.3333C22.3513 26.8899 23.3726 28.2374 24.7213 29.1919C26.0701 30.1464 27.6805 30.6615 29.3329 30.6667H66.6662C67.5751 30.6654 68.477 30.5084 69.3329 30.2027V25.3333C69.3329 22.4 67.6582 20 63.2582 20Z" fill="#9FEAFF"/>
<path d="M29.333 30.6667H66.6663C68.7861 30.673 70.8173 31.5179 72.3162 33.0168C73.8151 34.5157 74.66 36.5469 74.6663 38.6667V68C74.66 70.1198 73.8151 72.1509 72.3162 73.6499C70.8173 75.1488 68.7861 75.9937 66.6663 76H29.333C27.2132 75.9937 25.1821 75.1488 23.6831 73.6499C22.1842 72.1509 21.3393 70.1198 21.333 68V28C21.3393 25.8802 22.1842 23.8491 23.6831 22.3501C25.1821 20.8512 27.2132 20.0063 29.333 20H63.2583C67.6583 20 69.3357 22.4 69.3357 25.3333V31.1253" stroke="#00303E" stroke-width="2" stroke-linecap="round" stroke-linejoin="round"/>
<path d="M61.3337 25.3335H29.3337C28.6264 25.3335 27.9481 25.6144 27.448 26.1145C26.9479 26.6146 26.667 27.2929 26.667 28.0002C26.667 28.7074 26.9479 29.3857 27.448 29.8858C27.9481 30.3859 28.6264 30.6668 29.3337 30.6668" stroke="#00303E" stroke-width="2" stroke-linecap="round" stroke-linejoin="round"/>
<path d="M32 68H34.6667" stroke="#00303E" stroke-width="2" stroke-linecap="round" stroke-linejoin="round"/>
<path d="M40 68H45.3333" stroke="#00303E" stroke-width="2" stroke-linecap="round" stroke-linejoin="round"/>
<path d="M50.667 68H56.0003" stroke="#00303E" stroke-width="2" stroke-linecap="round" stroke-linejoin="round"/>
<path d="M61.333 68H66.6663" stroke="#00303E" stroke-width="2" stroke-linecap="round" stroke-linejoin="round"/>
<path d="M32 38.6665H34.6667" stroke="#00303E" stroke-width="2" stroke-linecap="round" stroke-linejoin="round"/>
<path d="M40 38.6665H45.3333" stroke="#00303E" stroke-width="2" stroke-linecap="round" stroke-linejoin="round"/>
<path d="M50.667 38.6665H56.0003" stroke="#00303E" stroke-width="2" stroke-linecap="round" stroke-linejoin="round"/>
<path d="M61.333 38.6665H66.6663" stroke="#00303E" stroke-width="2" stroke-linecap="round" stroke-linejoin="round"/>
<path d="M58.667 51.9998C58.667 50.5853 59.2289 49.2288 60.2291 48.2286C61.2293 47.2284 62.5858 46.6665 64.0003 46.6665H77.3337C78.7481 46.6665 80.1047 47.2284 81.1049 48.2286C82.1051 49.2288 82.667 50.5853 82.667 51.9998V54.6665C82.667 56.081 82.1051 57.4375 81.1049 58.4377C80.1047 59.4379 78.7481 59.9998 77.3337 59.9998H64.0003C62.5858 59.9998 61.2293 59.4379 60.2291 58.4377C59.2289 57.4375 58.667 56.081 58.667 54.6665V51.9998Z" fill="#DFF9FF"/>
<path d="M77.3337 53.3333H64.0003C62.938 53.3333 61.8998 53.016 61.019 52.4221C60.1381 51.8282 59.4547 50.9848 59.0563 50C58.7985 50.6352 58.6662 51.3144 58.667 52V54.6667C58.667 56.0812 59.2289 57.4377 60.2291 58.4379C61.2293 59.4381 62.5858 60 64.0003 60H77.3337C78.7482 60 80.1047 59.4381 81.1049 58.4379C82.1051 57.4377 82.667 56.0812 82.667 54.6667V52C82.6678 51.3144 82.5355 50.6352 82.2777 50C81.8793 50.9848 81.1959 51.8282 80.315 52.4221C79.4342 53.016 78.396 53.3333 77.3337 53.3333Z" fill="#9FEAFF"/>
<path d="M58.667 51.9998C58.667 50.5853 59.2289 49.2288 60.2291 48.2286C61.2293 47.2284 62.5858 46.6665 64.0003 46.6665H77.3337C78.7481 46.6665 80.1047 47.2284 81.1049 48.2286C82.1051 49.2288 82.667 50.5853 82.667 51.9998V54.6665C82.667 56.081 82.1051 57.4375 81.1049 58.4377C80.1047 59.4379 78.7481 59.9998 77.3337 59.9998H64.0003C62.5858 59.9998 61.2293 59.4379 60.2291 58.4377C59.2289 57.4375 58.667 56.081 58.667 54.6665V51.9998Z" stroke="#00303E" stroke-width="2" stroke-linecap="round" stroke-linejoin="round"/>
<path d="M65.3337 52.6665C65.4655 52.6665 65.5944 52.7056 65.704 52.7789C65.8137 52.8521 65.8991 52.9562 65.9496 53.078C66 53.1999 66.0132 53.3339 65.9875 53.4632C65.9618 53.5926 65.8983 53.7113 65.8051 53.8046C65.7118 53.8978 65.593 53.9613 65.4637 53.987C65.3344 54.0128 65.2004 53.9995 65.0785 53.9491C64.9567 53.8986 64.8526 53.8132 64.7793 53.7035C64.7061 53.5939 64.667 53.465 64.667 53.3332C64.667 53.1564 64.7372 52.9868 64.8623 52.8618C64.9873 52.7367 65.1568 52.6665 65.3337 52.6665Z" stroke="#00303E" stroke-width="2" stroke-linecap="round" stroke-linejoin="round"/>
</svg>
